
<svg id="Layer_1" xmlns="http://www.w3.org/2000/svg" xmlns:xlink="http://www.w3.org/1999/xlink" width="850.672" height="574.536" viewBox="0 0 869.672 574.536"><path fill="#BCBEC0" d="M102.75 13.47l22.8-3.635-11.295 8.76z"/><path fill="none" stroke="#6B5E5A" stroke-width=".25" d="M102.75 13.47l22.8-3.635-11.295 8.76z"/><defs><path id="SVGID_1_" d="M0 0h869.672v574.536H0z"/></defs><clipPath id="SVGID_2_"><use xlink:href="#SVGID_1_" overflow="visible"/></clipPath><path clip-path="url(#SVGID_2_)" fill="#B74D4B" d="M15.7 167.253c6.827 10.974 21.15 28.08 36.306 38.34 16.85 11.402 85.246 51.047 206.18 119.94 120.933 68.89 277.048 153.145 326.66 171.047 46.162 16.663 88.668 18.964 119.396 31.756 30.558 12.72 89.636 30.038 90.76 27.677-.587 9.042 8.363 18.318 8.363 18.318s-50.06-10.404-92.682-27.256c-42.62-16.848-55.01-13.877-104.08-25.278-49.067-11.398-117.955-50.06-282.998-142.734C158.562 286.38 41.6 207.572 41.6 207.572s-.796-1.9-5.947-9.418c-8.3-12.11-14.86-22.325-19.953-30.9"/><path clip-path="url(#SVGID_2_)" fill="#808285" d="M765.462 446.84c1.898-.8 3.912-1.678 5.825-2.485a.366.366 0 0 1 .11-.042c9.683-3.894 22.896 8.08 41.027 19.23 32.55 20.014 52.7 42.673 55.11 52.564.378 1.588.31 2.845-.235 3.707-2.232 3.52-15.178 6.05-34.08 5.235 3.39-.565 6.514-2.19 8.635-5.897 5.3-9.25-17.18-34.775-61.787-61.455-11.04-6.603-17.744-9.648-19.705-8.884.02-.013.033-.013.048-.022 1.333-.432 2.938-1.07 4.643-1.795.245-.096.356-.133.41-.157"/><path clip-path="url(#SVGID_2_)" fill="#D1D3D4" d="M869.062 515.69l-1.525.416c-2.412-9.89-22.563-32.55-55.112-52.563-18.13-11.15-31.344-23.123-41.03-19.23 3.61-1.534 6.833-2.805 8.182-2.805 3.468 0 23.022 9.734 49.56 28.746 26.684 19.11 37.605 36.368 39.925 45.437"/><path clip-path="url(#SVGID_2_)" fill="#D1D3D4" d="M869.062 515.69c.767 3.017.585 5.115-.273 6.105-1.69 1.924-10.038 4.53-22.078 5.86-12.786 1.418-29.75 1.397-47.31-2.392-46.758-10.077-97.64-32.71-101.108-34.195-3.18-1.36-15.503 3.927-20.6 5.59 3.474-1.258 7.29-3.278 10.933-5.074l.01-.01c.376-.172.814-.376 1.31-.635 4.677-2.24 8.995-3.91 11.816-2.846 5.285 1.98 43.862 17.577 78.556 27.81 13.735 4.06 26.812 6.587 38.477 7.966 3.72.483 9.36 2.02 14.425 1.18 18.903.813 31.848-1.716 34.08-5.237.544-.86.613-2.12.236-3.707l1.524-.415z"/><path clip-path="url(#SVGID_2_)" fill="#BCBEC0" d="M780.068 457.697c44.606 26.682 67.088 52.205 61.786 61.455-2.12 3.707-5.243 5.332-8.634 5.897-4.495-.2-9.32-.577-14.424-1.18-11.665-1.38-24.742-3.906-38.48-7.965-34.692-10.233-73.27-25.83-78.555-27.81-2.82-1.064-7.14.604-11.816 2.844 6.813-3.517 24.196-14.772 39.897-24.328 16.852-10.236 25.406-15.82 30.522-17.8 1.963-.762 8.667 2.284 19.706 8.885"/><path clip-path="url(#SVGID_2_)" fill="#BCBEC0" d="M760.363 448.813c-5.115 1.98-13.67 7.562-30.52 17.8-15.702 9.556-33.084 20.812-39.9 24.327-.434.208-.867.423-1.306.635l-.01.01c-3.645 1.796-7.46 3.816-10.934 5.076a.126.126 0 0 0-.065.02c-.45.148-.823.258-1.142.34-3.967.988-3.967 0-26.268-6.444-22.304-6.443-165.54-71.865-319.18-152.65C177.397 257.135 87.69 205.1 75.3 197.662c-12.386-7.433-11.562-14.047-14.54-19.497-2.97-5.45-24.602-9.258-50.88-28.575-4.677-3.44-7.423-8.142-8.753-13.166a3.998 3.998 0 0 0-.06-.25c-3.31-12.992 2.71-28.058 8.812-29.208 7.93-1.487 30.73-6.94 54.52-5.453 23.785 1.49 87.396 38.65 94.833 42.614 7.432 3.966 6.17 9.663 11.13 12.64 4.952 2.976 114.093 55.27 252.367 122.673 138.28 67.404 331.57 169.5 334.546 170 .595.094 1.684-.163 3.09-.627"/><path clip-path="url(#SVGID_2_)" fill="#515863" d="M799.4 525.265c17.563 3.79 34.526 3.81 47.313 2.392-20.205 3.765-42.258 12.657-49.3 21.896a11.6 11.6 0 0 0-2.413 6.46c-1.123 2.362-60.2-14.956-90.76-27.676-30.728-12.792-73.232-15.092-119.395-31.755-49.61-17.902-205.726-102.158-326.66-171.048-120.934-68.894-189.33-108.54-206.18-119.942-15.155-10.258-29.478-27.365-36.305-38.34-.69-1.15-1.342-2.27-1.968-3.36a.455.455 0 0 1-.037-.072c-7.446-12.894-11.28-21.705-12.57-27.396 1.33 5.024 4.076 9.725 8.752 13.167 26.28 19.318 47.91 23.125 50.88 28.576 2.98 5.45 2.155 12.064 14.54 19.497 12.393 7.437 102.1 59.473 255.744 140.26 153.64 80.787 296.876 146.21 319.18 152.652 22.3 6.444 22.3 7.433 26.268 6.444.318-.083.692-.192 1.142-.34.015-.014.05-.02.065-.02 5.097-1.666 17.418-6.95 20.6-5.59 3.468 1.485 54.35 24.118 101.106 34.195"/><path clip-path="url(#SVGID_2_)" fill="none" stroke="#6B5E5A" stroke-width=".25" d="M765.052 446.997c-1.704.727-3.31 1.362-4.64 1.795M771.287 444.354c-1.913.81-3.927 1.687-5.824 2.486M677.695 496.66c5.096-1.665 17.418-6.95 20.6-5.59 3.468 1.485 54.35 24.117 101.106 34.194 17.563 3.79 34.526 3.81 47.313 2.39 12.04-1.327 20.388-3.934 22.076-5.858.857-.99 1.04-3.09.272-6.104-2.32-9.07-13.242-26.326-39.927-45.438-26.537-19.012-46.092-28.745-49.56-28.745-1.35 0-4.57 1.27-8.18 2.802M1.125 136.424c1.33 5.023 4.076 9.725 8.752 13.167 26.28 19.317 47.91 23.125 50.88 28.576 2.98 5.45 2.155 12.064 14.54 19.496 12.393 7.438 102.1 59.474 255.744 140.262 153.64 80.786 296.876 146.208 319.18 152.65 22.3 6.446 22.3 7.434 26.268 6.446.32-.082.693-.193 1.142-.34M760.363 448.813c-1.406.464-2.495.72-3.09.625-2.977-.5-196.267-102.595-334.547-170C284.452 212.036 175.31 159.743 170.36 156.766c-4.96-2.976-3.7-8.673-11.13-12.64-7.438-3.963-71.05-41.124-94.835-42.613-23.79-1.488-46.59 3.966-54.52 5.453-6.1 1.15-12.12 16.216-8.81 29.208"/><path clip-path="url(#SVGID_2_)" fill="none" stroke="#6B5E5A" stroke-width=".25" d="M13.732 163.893c.626 1.09 1.28 2.208 1.968 3.36 5.093 8.576 11.653 18.79 19.953 30.902 5.15 7.517 5.946 9.42 5.946 9.42S158.56 286.38 323.604 379.06c165.042 92.678 233.93 131.337 283 142.736 49.068 11.402 61.457 8.43 104.078 25.28 42.622 16.85 92.683 27.255 92.683 27.255s-8.95-9.275-8.365-18.317a11.6 11.6 0 0 1 2.415-6.46c7.04-9.24 29.093-18.132 49.298-21.897a128.85 128.85 0 0 1 7.575-1.18M1.066 136.174c.02.082.04.16.06.25 1.288 5.69 5.123 14.502 12.57 27.396"/><path clip-path="url(#SVGID_2_)" fill="none" stroke="#6B5E5A" stroke-width=".25" d="M13.695 163.82c.01.023.02.05.037.072a60.26 60.26 0 0 0 1.968 3.36c6.827 10.974 21.15 28.082 36.306 38.34 16.85 11.403 85.246 51.047 206.18 119.94 120.933 68.89 277.048 153.146 326.66 171.048 46.16 16.663 88.667 18.965 119.396 31.757 30.557 12.72 89.635 30.037 90.758 27.676 0-.01.006-.015.006-.035M688.64 491.574c.436-.21.87-.426 1.306-.634 4.677-2.24 8.996-3.908 11.818-2.844 5.284 1.98 43.86 17.577 78.555 27.81 13.735 4.06 26.812 6.586 38.477 7.964 5.104.604 9.93.98 14.425 1.18 18.902.814 31.848-1.716 34.08-5.236.544-.86.612-2.12.235-3.707-2.412-9.89-22.562-32.55-55.11-52.564-18.132-11.15-31.346-23.123-41.03-19.23-.04.01-.068.02-.108.042M677.63 496.68a.13.13 0 0 1 .064-.02c3.473-1.258 7.29-3.28 10.933-5.075"/><path clip-path="url(#SVGID_2_)" fill="none" stroke="#6B5E5A" stroke-width=".25" d="M688.627 491.585l.012-.01c.374-.172.81-.376 1.305-.635 6.815-3.516 24.198-14.77 39.9-24.327 16.848-10.237 25.402-15.82 30.52-17.8.02-.012.032-.012.047-.02 2.85-1.1 4.097-1.588 4.642-1.796.246-.096.356-.134.41-.157l.026-.01"/><path clip-path="url(#SVGID_2_)" fill="none" stroke="#6B5E5A" stroke-width=".25" d="M760.363 448.813c1.962-.764 8.665 2.282 19.704 8.884 44.607 26.68 67.09 52.205 61.787 61.455-2.12 3.707-5.244 5.332-8.634 5.897-5.064.84-10.706-.696-14.424-1.18"/><path clip-path="url(#SVGID_2_)" fill="#5A8191" d="M87.522 141.815v52.53s-13.71-10.356-13.71-18.067c0-5.687-17.68-12.318-23.954-15.617-6.277-3.312-3.3-9.26-3.3-13.55 0-4.293-4.633-6.612-8.273-8.256-3.625-1.658-32.705-16.197-34.69-18.182-1.985-1.982-1.54-23.124-1.54-23.124l31.613 15.86v11.647l40.144 20.814 13.71-4.055z"/><path clip-path="url(#SVGID_2_)" fill="#66A6BA" d="M157.9 111.448v52.113L87.52 194.348v-52.532z"/><path clip-path="url(#SVGID_2_)" fill="#A5CDD6" d="M60.51 101.155l-26.843 7.297v4.957L2.055 97.546 27.64 87.66z"/><path clip-path="url(#SVGID_2_)" fill="none" stroke="#6B5E5A" stroke-width=".25" d="M2.055 97.548L27.64 87.66l32.87 13.496M33.667 108.452l40.145 20.568 95.316-27.767M73.812 129.02v16.85M87.522 194.346V141.546"/><path clip-path="url(#SVGID_2_)" fill="#5A8191" d="M101.54 155.586l-4.83 2.108v-9.815l4.83-2.108z"/><path clip-path="url(#SVGID_2_)" fill="none" stroke="#6B5E5A" stroke-width=".25" d="M101.54 155.586l-4.83 2.108v-9.815l4.83-2.108z"/><path clip-path="url(#SVGID_2_)" fill="#5A8191" d="M99.71 169.71l-3 1.308v-3.042l3-1.31z"/><path clip-path="url(#SVGID_2_)" fill="none" stroke="#6B5E5A" stroke-width=".25" d="M99.71 169.71l-3 1.308v-3.042l3-1.31z"/><path clip-path="url(#SVGID_2_)" fill="#5A8191" d="M106.822 166.603l-2.996 1.31v-3.047l2.996-1.31z"/><path clip-path="url(#SVGID_2_)" fill="none" stroke="#6B5E5A" stroke-width=".25" d="M106.822 166.603l-2.996 1.31v-3.047l2.996-1.31z"/><path clip-path="url(#SVGID_2_)" fill="#5A8191" d="M113.933 163.498l-2.996 1.312v-3.048l2.996-1.312z"/><path clip-path="url(#SVGID_2_)" fill="none" stroke="#6B5E5A" stroke-width=".25" d="M113.933 163.498l-2.996 1.312v-3.048l2.996-1.312z"/><path clip-path="url(#SVGID_2_)" fill="#5A8191" d="M121.044 160.39l-2.994 1.31v-3.043l2.994-1.308z"/><path clip-path="url(#SVGID_2_)" fill="none" stroke="#6B5E5A" stroke-width=".25" d="M121.044 160.39l-2.994 1.31v-3.043l2.994-1.308z"/><path clip-path="url(#SVGID_2_)" fill="#5A8191" d="M128.16 157.28l-3.004 1.313v-3.043l3.003-1.312z"/><path clip-path="url(#SVGID_2_)" fill="none" stroke="#6B5E5A" stroke-width=".25" d="M128.16 157.28l-3.004 1.313v-3.043l3.003-1.312z"/><path clip-path="url(#SVGID_2_)" fill="#5A8191" d="M135.272 154.18l-3 1.306v-3.042l3-1.308z"/><path clip-path="url(#SVGID_2_)" fill="none" stroke="#6B5E5A" stroke-width=".25" d="M135.272 154.18l-3 1.306v-3.042l3-1.308z"/><path clip-path="url(#SVGID_2_)" fill="#5A8191" d="M142.384 151.07l-2.998 1.31v-3.04l2.998-1.31z"/><path clip-path="url(#SVGID_2_)" fill="none" stroke="#6B5E5A" stroke-width=".25" d="M142.384 151.07l-2.998 1.31v-3.04l2.998-1.31z"/><path clip-path="url(#SVGID_2_)" fill="#5A8191" d="M149.495 147.963l-3 1.312v-3.043l3-1.31z"/><path clip-path="url(#SVGID_2_)" fill="none" stroke="#6B5E5A" stroke-width=".25" d="M149.495 147.963l-3 1.312v-3.043l3-1.31z"/><path clip-path="url(#SVGID_2_)" fill="#5A8191" d="M99.71 180.784l-3 1.31v-3.044l3-1.31z"/><path clip-path="url(#SVGID_2_)" fill="none" stroke="#6B5E5A" stroke-width=".25" d="M99.71 180.784l-3 1.31v-3.044l3-1.31z"/><path clip-path="url(#SVGID_2_)" fill="#5A8191" d="M106.822 177.68l-2.996 1.308v-3.045l2.996-1.305z"/><path clip-path="url(#SVGID_2_)" fill="none" stroke="#6B5E5A" stroke-width=".25" d="M106.822 177.68l-2.996 1.308v-3.045l2.996-1.305z"/><path clip-path="url(#SVGID_2_)" fill="#5A8191" d="M113.933 174.573l-2.996 1.308v-3.044l2.996-1.308z"/><path clip-path="url(#SVGID_2_)" fill="none" stroke="#6B5E5A" stroke-width=".25" d="M113.933 174.573l-2.996 1.308v-3.044l2.996-1.308z"/><path clip-path="url(#SVGID_2_)" fill="#5A8191" d="M121.044 171.468l-2.994 1.31v-3.045l2.994-1.31z"/><path clip-path="url(#SVGID_2_)" fill="none" stroke="#6B5E5A" stroke-width=".25" d="M121.044 171.468l-2.994 1.31v-3.045l2.994-1.31z"/><path clip-path="url(#SVGID_2_)" fill="#5A8191" d="M128.16 168.36l-3.004 1.31v-3.043l3.003-1.312z"/><path clip-path="url(#SVGID_2_)" fill="none" stroke="#6B5E5A" stroke-width=".25" d="M128.16 168.36l-3.004 1.31v-3.043l3.003-1.312z"/><path clip-path="url(#SVGID_2_)" fill="#5A8191" d="M135.272 165.255l-3 1.31v-3.044l3-1.31z"/><path clip-path="url(#SVGID_2_)" fill="none" stroke="#6B5E5A" stroke-width=".25" d="M135.272 165.255l-3 1.31v-3.044l3-1.31z"/><path clip-path="url(#SVGID_2_)" fill="#5A8191" d="M142.384 162.15l-2.998 1.305v-3.044l2.998-1.304z"/><path clip-path="url(#SVGID_2_)" fill="none" stroke="#6B5E5A" stroke-width=".25" d="M142.384 162.15l-2.998 1.305v-3.044l2.998-1.304z"/><path clip-path="url(#SVGID_2_)" fill="#5A8191" d="M149.495 159.044l-3 1.307v-3.045l3-1.305z"/><path clip-path="url(#SVGID_2_)" fill="none" stroke="#6B5E5A" stroke-width=".25" d="M149.495 159.044l-3 1.307v-3.045l3-1.305z"/><path clip-path="url(#SVGID_2_)" fill="#5A8191" d="M108.394 152.59l-4.83 2.11v-9.812l4.83-2.11z"/><path clip-path="url(#SVGID_2_)" fill="none" stroke="#6B5E5A" stroke-width=".25" d="M108.394 152.59l-4.83 2.11v-9.812l4.83-2.11z"/><path clip-path="url(#SVGID_2_)" fill="#5A8191" d="M115.242 149.6l-4.832 2.11v-9.813l4.832-2.11z"/><path clip-path="url(#SVGID_2_)" fill="none" stroke="#6B5E5A" stroke-width=".25" d="M115.242 149.6l-4.832 2.11v-9.813l4.832-2.11z"/><path clip-path="url(#SVGID_2_)" fill="#5A8191" d="M122.09 146.607l-4.828 2.112v-9.813l4.828-2.114z"/><path clip-path="url(#SVGID_2_)" fill="none" stroke="#6B5E5A" stroke-width=".25" d="M122.09 146.607l-4.828 2.112v-9.813l4.828-2.114z"/><path clip-path="url(#SVGID_2_)" fill="#3E5A63" d="M59.127 145.55l-4.08-2.08v-8.295l4.08 2.08z"/><path clip-path="url(#SVGID_2_)" fill="none" stroke="#6B5E5A" stroke-width=".25" d="M59.127 145.55l-4.08-2.08v-8.295l4.08 2.08z"/><path clip-path="url(#SVGID_2_)" fill="#3E5A63" d="M57.576 156.023l-2.527-1.295v-2.57l2.526 1.29z"/><path clip-path="url(#SVGID_2_)" fill="none" stroke="#6B5E5A" stroke-width=".25" d="M57.576 156.023l-2.527-1.295v-2.57l2.526 1.29z"/><path clip-path="url(#SVGID_2_)" fill="#3E5A63" d="M63.587 159.084l-2.528-1.288v-2.575l2.527 1.295z"/><path clip-path="url(#SVGID_2_)" fill="none" stroke="#6B5E5A" stroke-width=".25" d="M63.587 159.084l-2.528-1.288v-2.575l2.527 1.295z"/><path clip-path="url(#SVGID_2_)" fill="#3E5A63" d="M69.6 162.15l-2.533-1.296v-2.57l2.532 1.292z"/><path clip-path="url(#SVGID_2_)" fill="none" stroke="#6B5E5A" stroke-width=".25" d="M69.6 162.15l-2.533-1.296v-2.57l2.532 1.292z"/><path clip-path="url(#SVGID_2_)" fill="#3E5A63" d="M75.607 165.21l-2.525-1.29v-2.574l2.525 1.293z"/><path clip-path="url(#SVGID_2_)" fill="none" stroke="#6B5E5A" stroke-width=".25" d="M75.607 165.21l-2.525-1.29v-2.574l2.525 1.293z"/><path clip-path="url(#SVGID_2_)" fill="#3E5A63" d="M64.92 148.5l-4.087-2.082v-8.293l4.086 2.08z"/><path clip-path="url(#SVGID_2_)" fill="none" stroke="#6B5E5A" stroke-width=".25" d="M64.92 148.5l-4.087-2.082v-8.293l4.086 2.08z"/><path clip-path="url(#SVGID_2_)" fill="#3E5A63" d="M70.703 151.45l-4.08-2.078v-8.298l4.08 2.083z"/><path clip-path="url(#SVGID_2_)" fill="none" stroke="#6B5E5A" stroke-width=".25" d="M70.703 151.45l-4.08-2.078v-8.298l4.08 2.083z"/><path clip-path="url(#SVGID_2_)" fill="#3E5A63" d="M76.498 154.402l-4.084-2.082v-8.292l4.084 2.08z"/><path clip-path="url(#SVGID_2_)" fill="none" stroke="#6B5E5A" stroke-width=".25" d="M76.498 154.402l-4.084-2.082v-8.292l4.084 2.08z"/><path clip-path="url(#SVGID_2_)" fill="#5A8191" d="M128.943 143.615l-4.83 2.11v-9.812l4.83-2.11z"/><path clip-path="url(#SVGID_2_)" fill="none" stroke="#6B5E5A" stroke-width=".25" d="M128.943 143.615l-4.83 2.11v-9.812l4.83-2.11z"/><path clip-path="url(#SVGID_2_)" fill="#5A8191" d="M135.794 140.625l-4.826 2.108v-9.815l4.826-2.104z"/><path clip-path="url(#SVGID_2_)" fill="none" stroke="#6B5E5A" stroke-width=".25" d="M135.794 140.625l-4.826 2.108v-9.815l4.826-2.104z"/><path clip-path="url(#SVGID_2_)" fill="#5A8191" d="M142.642 137.634l-4.826 2.11v-9.812l4.826-2.11z"/><path clip-path="url(#SVGID_2_)" fill="none" stroke="#6B5E5A" stroke-width=".25" d="M142.642 137.634l-4.826 2.11v-9.812l4.826-2.11z"/><path clip-path="url(#SVGID_2_)" fill="#5A8191" d="M149.495 134.643l-4.83 2.107v-9.813l4.83-2.11z"/><path clip-path="url(#SVGID_2_)" fill="none" stroke="#6B5E5A" stroke-width=".25" d="M149.495 134.643l-4.83 2.107v-9.813l4.83-2.11z"/><path clip-path="url(#SVGID_2_)" fill="#538BA1" d="M73.812 129.02v18.078l-40.145-20.25v-18.396z"/><path clip-path="url(#SVGID_2_)" fill="#66A6BA" d="M87.522 141.815l-13.71 5.283V129.02l95.316-41.36v18.944l-11.23 4.845z"/><path clip-path="url(#SVGID_2_)" fill="none" stroke="#6B5E5A" stroke-width=".25" d="M33.667 113.408v13.44l40.145 20.25 13.71-5.283 81.606-35.21"/><path clip-path="url(#SVGID_2_)" fill="#3E5A63" d="M57.345 133.474l-5.805-2.96v-7.78l5.805 2.96z"/><path clip-path="url(#SVGID_2_)" fill="none" stroke="#6B5E5A" stroke-width=".25" d="M57.345 133.474l-5.805-2.96v-7.78l5.805 2.96z"/><path clip-path="url(#SVGID_2_)" fill="#3E5A63" d="M42.183 125.75l-5.807-2.957v-7.783l5.807 2.958z"/><path clip-path="url(#SVGID_2_)" fill="none" stroke="#6B5E5A" stroke-width=".25" d="M42.183 125.75l-5.807-2.957v-7.783l5.807 2.958z"/><path clip-path="url(#SVGID_2_)" fill="#3E5A63" d="M64.226 136.98l-5.81-2.956v-7.783l5.81 2.96z"/><path clip-path="url(#SVGID_2_)" fill="none" stroke="#6B5E5A" stroke-width=".25" d="M64.226 136.98l-5.81-2.956v-7.783l5.81 2.96z"/><path clip-path="url(#SVGID_2_)" fill="#3E5A63" d="M71.103 140.485l-5.81-2.957v-7.78l5.81 2.958z"/><path clip-path="url(#SVGID_2_)" fill="none" stroke="#6B5E5A" stroke-width=".25" d="M71.103 140.485l-5.81-2.957v-7.78l5.81 2.958z"/><path clip-path="url(#SVGID_2_)" fill="#5A8191" d="M87.933 135.54l-9.387 4.1v-7.088l9.387-4.1z"/><path clip-path="url(#SVGID_2_)" fill="none" stroke="#6B5E5A" stroke-width=".25" d="M87.933 135.54l-9.387 4.1v-7.088l9.387-4.1z"/><path clip-path="url(#SVGID_2_)" fill="#5A8191" d="M99.057 130.68l-9.386 4.1v-7.086l9.387-4.1z"/><path clip-path="url(#SVGID_2_)" fill="none" stroke="#6B5E5A" stroke-width=".25" d="M99.057 130.68l-9.386 4.1v-7.086l9.387-4.1z"/><path clip-path="url(#SVGID_2_)" fill="#5A8191" d="M110.177 125.82l-9.385 4.103v-7.087l9.385-4.1z"/><path clip-path="url(#SVGID_2_)" fill="none" stroke="#6B5E5A" stroke-width=".25" d="M110.177 125.82l-9.385 4.103v-7.087l9.385-4.1z"/><path clip-path="url(#SVGID_2_)" fill="#5A8191" d="M121.3 120.968l-9.383 4.096v-7.087l9.383-4.1z"/><path clip-path="url(#SVGID_2_)" fill="none" stroke="#6B5E5A" stroke-width=".25" d="M121.3 120.968l-9.383 4.096v-7.087l9.383-4.1z"/><path clip-path="url(#SVGID_2_)" fill="#5A8191" d="M132.428 116.108l-9.39 4.1v-7.09l9.39-4.097z"/><path clip-path="url(#SVGID_2_)" fill="none" stroke="#6B5E5A" stroke-width=".25" d="M132.428 116.108l-9.39 4.1v-7.09l9.39-4.097z"/><path clip-path="url(#SVGID_2_)" fill="#5A8191" d="M143.55 111.25l-9.388 4.1v-7.088l9.388-4.1z"/><path clip-path="url(#SVGID_2_)" fill="none" stroke="#6B5E5A" stroke-width=".25" d="M143.55 111.25l-9.388 4.1v-7.088l9.388-4.1z"/><path clip-path="url(#SVGID_2_)" fill="#5A8191" d="M154.67 106.393l-9.38 4.098v-7.087l9.38-4.098z"/><path clip-path="url(#SVGID_2_)" fill="none" stroke="#6B5E5A" stroke-width=".25" d="M154.67 106.393l-9.38 4.098v-7.087l9.38-4.098z"/><path clip-path="url(#SVGID_2_)" fill="#5A8191" d="M165.792 101.533l-9.385 4.1v-7.088l9.385-4.1z"/><path clip-path="url(#SVGID_2_)" fill="none" stroke="#6B5E5A" stroke-width=".25" d="M165.792 101.533l-9.385 4.1v-7.088l9.385-4.1z"/><path clip-path="url(#SVGID_2_)" fill="#5A8191" d="M48.124 73.825v36.6l29.688-.665V73.825z"/><path clip-path="url(#SVGID_2_)" fill="none" stroke="#6B5E5A" stroke-width=".25" d="M48.124 73.825v36.6l29.688-.665V73.825z"/><path clip-path="url(#SVGID_2_)" fill="#3E5A63" d="M77.812 73.825c0 1.986-6.645 3.597-14.844 3.597-8.198 0-14.845-1.61-14.845-3.597 0-1.988 6.647-3.598 14.845-3.598 8.2 0 14.844 1.61 14.844 3.598"/><ellipse clip-path="url(#SVGID_2_)" fill="none" stroke="#6B5E5A" stroke-width=".25" cx="62.968" cy="73.825" rx="14.844" ry="3.597"/><path clip-path="url(#SVGID_2_)" fill="#D3E6F0" d="M169.128 87.66l-95.316 41.36-40.145-20.57 94.82-36.734z"/><path clip-path="url(#SVGID_2_)" fill="none" stroke="#6B5E5A" stroke-width=".25" d="M2.055 97.548s-.445 21.143 1.54 23.125c1.984 1.984 31.064 16.523 34.69 18.182 3.64 1.643 8.272 3.963 8.272 8.256 0 4.292-2.976 10.24 3.3 13.55 6.275 3.3 23.955 9.147 23.955 15.618 0 8.418 13.71 18.068 13.71 18.068L157.9 163.56V111.45l11.228-4.844V87.66l-40.64-15.944-94.82 36.735v4.958L2.054 97.548z"/><path clip-path="url(#SVGID_2_)" fill="#BCBEC0" d="M112.52 85.005L100.105 95.25l14.044 6.607z"/><path clip-path="url(#SVGID_2_)" fill="none" stroke="#6B5E5A" stroke-width=".25" d="M112.52 85.005L100.105 95.25l14.044 6.607z"/><path clip-path="url(#SVGID_2_)" fill="#D1D3D4" d="M116.472 41.508h-4.43l-2.722 60.737c0 .853 2.21 1.547 4.935 1.547 2.73 0 4.942-.694 4.942-1.547l-2.725-60.737z"/><path clip-path="url(#SVGID_2_)" fill="none" stroke="#6B5E5A" stroke-width=".25" d="M116.472 41.508h-4.43l-2.722 60.737c0 .853 2.21 1.547 4.935 1.547 2.73 0 4.942-.694 4.942-1.547l-2.725-60.737z"/><path clip-path="url(#SVGID_2_)" fill="#E6E7E8" d="M114.255.007l-2.213 41.5c0 .385.992.69 2.213.69 1.225 0 2.217-.305 2.217-.69l-2.217-41.5z"/><path clip-path="url(#SVGID_2_)" fill="none" stroke="#6B5E5A" stroke-width=".25" d="M114.255.007l-2.213 41.5c0 .385.992.69 2.213.69 1.225 0 2.217-.305 2.217-.69l-2.217-41.5z"/><path clip-path="url(#SVGID_2_)" fill="#939598" d="M727.64 486.126h.058s-.99-1.476-1.63-3.46c-.454-1.418.214-2.43.625-2.66l-6.977-.023c.416.23 1.09 1.248.634 2.662a15.63 15.63 0 0 1-1.586 3.383.355.355 0 0 0-.04.07l-.006.01a.748.748 0 0 0-.08.338c0 1.006 2.03 1.818 4.538 1.818 2.508 0 4.547-.812 4.547-1.818a.808.808 0 0 0-.083-.32"/><path clip-path="url(#SVGID_2_)" fill="none" stroke="#6B5E5A" stroke-width=".25" d="M727.64 486.126h.058s-.99-1.476-1.63-3.46c-.454-1.418.214-2.43.625-2.66l-6.977-.023c.416.23 1.09 1.248.634 2.662a15.63 15.63 0 0 1-1.586 3.383.355.355 0 0 0-.04.07l-.006.01a.748.748 0 0 0-.08.338c0 1.006 2.03 1.818 4.538 1.818 2.508 0 4.547-.812 4.547-1.818a.808.808 0 0 0-.083-.32z"/><path clip-path="url(#SVGID_2_)" fill="#A7A9AC" d="M726.487 477.567c-.832-.354-2.002-.578-3.31-.578-1.31 0-2.48.224-3.31.577h-1.23v1.24c0 1.003 2.03 1.82 4.54 1.82 2.505 0 4.544-.817 4.544-1.82v-1.24h-1.233z"/><path clip-path="url(#SVGID_2_)" fill="none" stroke="#6B5E5A" stroke-width=".25" d="M726.487 477.567c-.832-.354-2.002-.578-3.31-.578-1.31 0-2.48.224-3.31.577h-1.23v1.24c0 1.003 2.03 1.82 4.54 1.82 2.505 0 4.544-.817 4.544-1.82v-1.24h-1.233z"/><path clip-path="url(#SVGID_2_)" fill="#E6E7E8" d="M727.723 477.567c0 1.005-2.04 1.817-4.547 1.817-2.51 0-4.54-.812-4.54-1.817 0-1.004 2.03-1.816 4.54-1.816 2.508 0 4.547.813 4.547 1.817"/><path clip-path="url(#SVGID_2_)" fill="none" stroke="#6B5E5A" stroke-width=".25" d="M727.723 477.567c0 1.005-2.04 1.817-4.547 1.817-2.51 0-4.54-.812-4.54-1.817 0-1.004 2.03-1.816 4.54-1.816 2.508 0 4.547.813 4.547 1.817z"/><path clip-path="url(#SVGID_2_)" fill="#939598" d="M767.197 462.09h.058s-.99-1.476-1.632-3.46c-.46-1.415.21-2.427.63-2.664l-6.98-.017c.42.228 1.088 1.244.633 2.657a15.77 15.77 0 0 1-1.586 3.385c-.013.024-.028.046-.042.07l-.007.004a.88.88 0 0 0-.08.344c0 1 2.033 1.816 4.543 1.816 2.51 0 4.54-.815 4.54-1.816a.843.843 0 0 0-.076-.32"/><path clip-path="url(#SVGID_2_)" fill="none" stroke="#6B5E5A" stroke-width=".25" d="M767.197 462.09h.058s-.99-1.476-1.632-3.46c-.46-1.415.21-2.427.63-2.664l-6.98-.017c.42.228 1.088 1.244.633 2.657a15.77 15.77 0 0 1-1.586 3.385c-.013.024-.028.046-.042.07l-.007.004a.88.88 0 0 0-.08.344c0 1 2.033 1.816 4.543 1.816 2.51 0 4.54-.815 4.54-1.816a.843.843 0 0 0-.076-.32z"/><path clip-path="url(#SVGID_2_)" fill="#A7A9AC" d="M766.04 453.53c-.827-.355-1.998-.58-3.307-.58-1.308 0-2.477.226-3.31.58h-1.233v1.24c0 1 2.033 1.816 4.543 1.816s4.54-.817 4.54-1.815v-1.24h-1.234z"/><path clip-path="url(#SVGID_2_)" fill="none" stroke="#6B5E5A" stroke-width=".25" d="M766.04 453.53c-.827-.355-1.998-.58-3.307-.58-1.308 0-2.477.226-3.31.58h-1.233v1.24c0 1 2.033 1.816 4.543 1.816s4.54-.817 4.54-1.815v-1.24h-1.234z"/><path clip-path="url(#SVGID_2_)" fill="#E6E7E8" d="M767.273 453.53c0 1-2.03 1.816-4.54 1.816-2.51 0-4.542-.815-4.542-1.817s2.033-1.818 4.544-1.818c2.51 0 4.54.815 4.54 1.817"/><path clip-path="url(#SVGID_2_)" fill="none" stroke="#6B5E5A" stroke-width=".25" d="M767.273 453.53c0 1-2.03 1.816-4.54 1.816-2.51 0-4.542-.815-4.542-1.817s2.033-1.818 4.544-1.818c2.51 0 4.54.815 4.54 1.817z"/><path clip-path="url(#SVGID_2_)" fill="#A7A9AC" d="M45.428 108.312h.028s-.492-.738-.815-1.727c-.225-.702.107-1.207.317-1.32l-3.475-.013c.203.117.54.624.31 1.325a7.482 7.482 0 0 1-.787 1.685c-.004.014-.014.023-.02.036l-.003.004h.004a.357.357 0 0 0-.045.17c0 .5 1.012.904 2.264.904 1.25 0 2.264-.405 2.264-.905 0-.05-.02-.108-.04-.158"/><path clip-path="url(#SVGID_2_)" fill="none" stroke="#6B5E5A" stroke-width=".25" d="M45.428 108.312h.028s-.492-.738-.815-1.727c-.225-.702.107-1.207.317-1.32l-3.475-.013c.203.117.54.624.31 1.325a7.482 7.482 0 0 1-.787 1.685c-.004.014-.014.023-.02.036l-.003.004h.004a.357.357 0 0 0-.045.17c0 .5 1.012.904 2.264.904 1.25 0 2.264-.405 2.264-.905 0-.05-.02-.108-.04-.158z"/><path clip-path="url(#SVGID_2_)" fill="#A7A9AC" d="M44.85 104.05c-.413-.177-.995-.288-1.645-.288s-1.234.11-1.65.288h-.614v.617c0 .498 1.013.904 2.265.904 1.25 0 2.263-.405 2.263-.903v-.617h-.618z"/><path clip-path="url(#SVGID_2_)" fill="none" stroke="#6B5E5A" stroke-width=".25" d="M44.85 104.05c-.413-.177-.995-.288-1.645-.288s-1.234.11-1.65.288h-.614v.617c0 .498 1.013.904 2.265.904 1.25 0 2.263-.405 2.263-.903v-.617h-.618z"/><path clip-path="url(#SVGID_2_)" fill="#E6E7E8" d="M45.468 104.05c0 .5-1.014.905-2.264.905-1.252 0-2.263-.405-2.263-.905 0-.503 1.012-.906 2.264-.906 1.25 0 2.264.403 2.264.906"/><path clip-path="url(#SVGID_2_)" fill="none" stroke="#6B5E5A" stroke-width=".25" d="M45.468 104.05c0 .5-1.014.905-2.264.905-1.252 0-2.263-.405-2.263-.905 0-.503 1.012-.906 2.264-.906 1.25 0 2.264.403 2.264.906z"/><path clip-path="url(#SVGID_2_)" fill="#BCBEC0" d="M130.532 75.877h.024s-.49-.735-.81-1.724c-.23-.706.107-1.21.315-1.325l-3.468-.012c.2.117.535.62.306 1.326a7.867 7.867 0 0 1-.787 1.686c-.005.012-.015.02-.018.033l-.004.004a.388.388 0 0 0-.043.173c0 .5 1.013.902 2.262.902s2.26-.404 2.26-.903a.402.402 0 0 0-.035-.16"/><path clip-path="url(#SVGID_2_)" fill="none" stroke="#6B5E5A" stroke-width=".25" d="M130.532 75.877h.024s-.49-.735-.81-1.724c-.23-.706.107-1.21.315-1.325l-3.468-.012c.2.117.535.62.306 1.326a7.867 7.867 0 0 1-.787 1.686c-.005.012-.015.02-.018.033l-.004.004a.388.388 0 0 0-.043.173c0 .5 1.013.902 2.262.902s2.26-.404 2.26-.903a.402.402 0 0 0-.035-.16z"/><path clip-path="url(#SVGID_2_)" fill="#A7A9AC" d="M129.957 71.613c-.414-.177-.994-.287-1.65-.287-.65 0-1.235.11-1.65.287h-.612v.62c0 .498 1.014.904 2.263.904s2.26-.406 2.26-.905v-.62h-.61z"/><path clip-path="url(#SVGID_2_)" fill="none" stroke="#6B5E5A" stroke-width=".25" d="M129.957 71.613c-.414-.177-.994-.287-1.65-.287-.65 0-1.235.11-1.65.287h-.612v.62c0 .498 1.014.904 2.263.904s2.26-.406 2.26-.905v-.62h-.61z"/><path clip-path="url(#SVGID_2_)" fill="#E6E7E8" d="M130.568 71.613c0 .5-1.012.907-2.26.907-1.25 0-2.263-.408-2.263-.907 0-.498 1.013-.905 2.262-.905 1.25 0 2.26.408 2.26.905"/><path clip-path="url(#SVGID_2_)" fill="none" stroke="#6B5E5A" stroke-width=".25" d="M130.568 71.613c0 .5-1.012.907-2.26.907-1.25 0-2.263-.408-2.263-.907 0-.498 1.013-.905 2.262-.905 1.25 0 2.26.408 2.26.905z"/><path clip-path="url(#SVGID_2_)" fill="#A97C50" d="M2.05 121.323s1.693 7.397 8.416 12.402c6.727 5.002 14.686 1.298 14.686 1.298l-23.102-13.7z"/><path clip-path="url(#SVGID_2_)" fill="none" stroke="#6B5E5A" stroke-width=".25" d="M2.05 121.323s1.693 7.397 8.416 12.402c6.727 5.002 14.686 1.298 14.686 1.298l-23.102-13.7z"/><path clip-path="url(#SVGID_2_)" fill="#C49A6C" d="M2.05 121.323s5.456 5.89 9.664 9.032c4.518 3.37 13.438 4.668 13.438 4.668s-1.784-5.055-6.04-7.79c-7.223-4.642-10.154-6.45-10.154-6.45s-7.484-.292-6.908.54"/><path clip-path="url(#SVGID_2_)" fill="none" stroke="#6B5E5A" stroke-width=".25" d="M2.05 121.323s5.456 5.89 9.664 9.032c4.518 3.37 13.438 4.668 13.438 4.668s-1.784-5.055-6.04-7.79c-7.223-4.642-10.154-6.45-10.154-6.45s-7.484-.292-6.908.54z"/><path clip-path="url(#SVGID_2_)" fill="#A97C50" d="M4.454 135.234s3.372 6.803 11.07 10.1c7.705 3.297 14.587-2.16 14.587-2.16l-25.656-7.94z"/><path clip-path="url(#SVGID_2_)" fill="none" stroke="#6B5E5A" stroke-width=".25" d="M4.454 135.234s3.372 6.803 11.07 10.1c7.705 3.297 14.587-2.16 14.587-2.16l-25.656-7.94z"/><path clip-path="url(#SVGID_2_)" fill="#C49A6C" d="M4.454 135.234s6.677 4.458 11.502 6.533c5.173 2.224 14.155 1.407 14.155 1.407s-2.914-4.498-7.687-6.165c-8.105-2.833-11.376-3.91-11.376-3.91s-7.355 1.462-6.593 2.134"/><path clip-path="url(#SVGID_2_)" fill="none" stroke="#6B5E5A" stroke-width=".25" d="M4.454 135.234s6.677 4.458 11.502 6.533c5.173 2.224 14.155 1.407 14.155 1.407s-2.914-4.498-7.687-6.165c-8.105-2.833-11.376-3.91-11.376-3.91s-7.355 1.462-6.593 2.134z"/><path clip-path="url(#SVGID_2_)" fill="#467082" d="M161.462 140.39v19.648l50.194 25.503v-19.647z"/><path clip-path="url(#SVGID_2_)" fill="#74CCE5" d="M184.443 178.785L134.25 153.28l21.69-11.016 50.194 25.5z"/><path clip-path="url(#SVGID_2_)" fill="#467082" d="M134.25 153.28v19.65l50.192 25.505v-19.65z"/><path clip-path="url(#SVGID_2_)" fill="#538BA1" d="M81.646 204.79v-21.004l21.69 11.02v21.005z"/><path clip-path="url(#SVGID_2_)" fill="none" stroke="#5A8191" stroke-width=".25" d="M81.646 204.79v-21.004l21.69 11.02v21.005z"/><path clip-path="url(#SVGID_2_)" fill="#D3E6F0" d="M153.53 169.304l-50.194 25.502-21.69-11.02 50.196-25.5z"/><path clip-path="url(#SVGID_2_)" fill="none" stroke="#5A8191" stroke-width=".25" d="M153.53 169.304l-50.194 25.502-21.69-11.02 50.196-25.5z"/><path clip-path="url(#SVGID_2_)" fill="#66A6BA" d="M153.53 169.304v21l-50.194 25.506v-21.004z"/><path clip-path="url(#SVGID_2_)" fill="none" stroke="#5A8191" stroke-width=".25" d="M153.53 169.304v21l-50.194 25.506v-21.004z"/><path clip-path="url(#SVGID_2_)" fill="#74CCE5" d="M211.657 165.893l-50.194-25.504 21.69-11.018 50.194 25.5z"/><path clip-path="url(#SVGID_2_)" fill="#467082" d="M233.347 154.873l-21.69 11.02v19.65l21.69-11.022z"/><path clip-path="url(#SVGID_2_)" fill="#74CCE5" d="M263.95 193.19l-50.195-25.502 21.69-11.016 50.19 25.503z"/><path clip-path="url(#SVGID_2_)" fill="#467082" d="M213.754 167.688v19.65l50.194 25.503v-19.648zM285.636 182.175l-21.687 11.017v19.65l21.686-11.018z"/><path clip-path="url(#SVGID_2_)" fill="#A5CDD6" d="M319.394 220.606l-50.19-25.504 21.686-11.017 50.194 25.503z"/><path clip-path="url(#SVGID_2_)" fill="none" stroke="#5A8191" stroke-width=".25" d="M319.394 220.606l-50.19-25.504 21.686-11.017 50.194 25.503z"/><path clip-path="url(#SVGID_2_)" fill="#5A8191" d="M269.203 195.102v19.65l50.19 25.502v-19.648z"/><path clip-path="url(#SVGID_2_)" fill="none" stroke="#5A8191" stroke-width=".25" d="M269.203 195.102v19.65l50.19 25.502v-19.648z"/><path clip-path="url(#SVGID_2_)" fill="#66A6BA" d="M341.083 209.588l-21.69 11.018v19.648l21.69-11.017z"/><path clip-path="url(#SVGID_2_)" fill="none" stroke="#5A8191" stroke-width=".25" d="M341.083 209.588l-21.69 11.018v19.648l21.69-11.017z"/><path clip-path="url(#SVGID_2_)" fill="#74CCE5" d="M373.474 249.09l-50.193-25.503 21.69-11.016 50.19 25.5z"/><path clip-path="url(#SVGID_2_)" fill="#467082" d="M323.28 223.587v19.65l50.194 25.504v-19.65zM395.16 238.07l-21.686 11.022v19.65l21.686-11.02z"/><path clip-path="url(#SVGID_2_)" fill="#74CCE5" d="M425.76 276.39l-50.188-25.5 21.69-11.018 50.188 25.5z"/><path clip-path="url(#SVGID_2_)" fill="#467082" d="M375.572 250.89v19.646l50.19 25.502V276.39zM447.45 265.373l-21.688 11.016v19.648l21.69-11.017z"/><path clip-path="url(#SVGID_2_)" fill="#A5CDD6" d="M481.21 303.803L431.02 278.3l21.687-11.017 50.19 25.503z"/><path clip-path="url(#SVGID_2_)" fill="none" stroke="#5A8191" stroke-width=".25" d="M481.21 303.803L431.02 278.3l21.687-11.017 50.19 25.503z"/><path clip-path="url(#SVGID_2_)" fill="#5A8191" d="M431.02 278.3v19.65l50.19 25.502v-19.65z"/><path clip-path="url(#SVGID_2_)" fill="none" stroke="#5A8191" stroke-width=".25" d="M431.02 278.3v19.65l50.19 25.502v-19.65z"/><path clip-path="url(#SVGID_2_)" fill="#66A6BA" d="M502.896 292.786l-21.686 11.018v19.648l21.686-11.017z"/><path clip-path="url(#SVGID_2_)" fill="none" stroke="#5A8191" stroke-width=".25" d="M502.896 292.786l-21.686 11.018v19.648l21.686-11.017z"/><path clip-path="url(#SVGID_2_)" fill="#467082" d="M206.134 167.765l-21.69 11.02v19.65l21.69-11.02z"/><path clip-path="url(#SVGID_2_)" fill="#74CCE5" d="M236.73 206.084l-50.188-25.5 21.686-11.02 50.193 25.503z"/><path clip-path="url(#SVGID_2_)" fill="#467082" d="M186.542 180.583v19.647l50.188 25.5v-19.646zM258.42 195.068l-21.69 11.017v19.646l21.69-11.016z"/><path clip-path="url(#SVGID_2_)" fill="#A5CDD6" d="M292.18 233.495l-50.196-25.5 21.69-11.017 50.196 25.5z"/><path clip-path="url(#SVGID_2_)" fill="none" stroke="#5A8191" stroke-width=".25" d="M292.18 233.495l-50.196-25.5 21.69-11.017 50.196 25.5z"/><path clip-path="url(#SVGID_2_)" fill="#5A8191" d="M241.984 207.995v19.65l50.197 25.5v-19.65z"/><path clip-path="url(#SVGID_2_)" fill="none" stroke="#5A8191" stroke-width=".25" d="M241.984 207.995v19.65l50.197 25.5v-19.65z"/><path clip-path="url(#SVGID_2_)" fill="#66A6BA" d="M313.87 222.48l-21.688 11.016v19.65l21.69-11.02z"/><path clip-path="url(#SVGID_2_)" fill="none" stroke="#5A8191" stroke-width=".25" d="M313.87 222.48l-21.688 11.016v19.65l21.69-11.02z"/><path clip-path="url(#SVGID_2_)" fill="#9D7F93" d="M106.744 218.706v-21.004l21.69 11.02v21.005z"/><path clip-path="url(#SVGID_2_)" fill="none" stroke="#6B5E5A" stroke-width=".25" d="M106.744 218.706v-21.004l21.69 11.02v21.005z"/><path clip-path="url(#SVGID_2_)" fill="#CCB7C3" d="M178.628 183.222l-50.193 25.5-21.692-11.02 50.195-25.498z"/><path clip-path="url(#SVGID_2_)" fill="none" stroke="#6B5E5A" stroke-width=".25" d="M178.628 183.222l-50.193 25.5-21.692-11.02 50.195-25.498z"/><path clip-path="url(#SVGID_2_)" fill="#716A81" d="M178.628 183.222v21.005l-50.193 25.5v-21.005z"/><path clip-path="url(#SVGID_2_)" fill="none" stroke="#6B5E5A" stroke-width=".25" d="M178.628 183.222v21.005l-50.193 25.5v-21.005z"/><path clip-path="url(#SVGID_2_)" fill="#5A8191" d="M133.36 231.456v-21l21.69 11.02v21z"/><path clip-path="url(#SVGID_2_)" fill="none" stroke="#5A8191" stroke-width=".25" d="M133.36 231.456v-21l21.69 11.02v21z"/><path clip-path="url(#SVGID_2_)" fill="#B9E5FB" d="M205.245 195.97l-50.195 25.505-21.692-11.02 50.197-25.5z"/><path clip-path="url(#SVGID_2_)" fill="none" stroke="#5A8191" stroke-width=".25" d="M205.245 195.97l-50.195 25.505-21.692-11.02 50.197-25.5z"/><path clip-path="url(#SVGID_2_)" fill="#66A6BA" d="M205.245 195.97v21.006l-50.195 25.5v-21z"/><path clip-path="url(#SVGID_2_)" fill="none" stroke="#5A8191" stroke-width=".25" d="M205.245 195.97v21.006l-50.195 25.5v-21z"/><path clip-path="url(#SVGID_2_)" fill="#87829B" d="M159.533 246.266v-21l21.687 11.02v21z"/><path clip-path="url(#SVGID_2_)" fill="none" stroke="#716A81" stroke-width=".25" d="M159.533 246.266v-21l21.687 11.02v21z"/><path clip-path="url(#SVGID_2_)" fill="#CCB7C3" d="M231.416 210.78l-50.195 25.506-21.687-11.02 50.196-25.502z"/><path clip-path="url(#SVGID_2_)" fill="none" stroke="#716A81" stroke-width=".25" d="M231.416 210.78l-50.195 25.506-21.687-11.02 50.196-25.502z"/><path clip-path="url(#SVGID_2_)" fill="#9D7F93" d="M231.416 210.78v21.008l-50.195 25.498v-21z"/><path clip-path="url(#SVGID_2_)" fill="none" stroke="#716A81" stroke-width=".25" d="M231.416 210.78v21.008l-50.195 25.498v-21z"/><path clip-path="url(#SVGID_2_)" fill="#659AD2" d="M187.787 259.02v-21.003l21.69 11.018v21.006z"/><path clip-path="url(#SVGID_2_)" fill="none" stroke="#5A8191" stroke-width=".25" d="M187.787 259.02v-21.003l21.69 11.018v21.006z"/><path clip-path="url(#SVGID_2_)" fill="#B9E5FB" d="M259.67 223.533l-50.194 25.502-21.69-11.018 50.194-25.502z"/><path clip-path="url(#SVGID_2_)" fill="none" stroke="#5A8191" stroke-width=".25" d="M259.67 223.533l-50.194 25.502-21.69-11.018 50.194-25.502z"/><path clip-path="url(#SVGID_2_)" fill="#467082" d="M259.67 223.533v21.002l-50.194 25.507v-21.007z"/><path clip-path="url(#SVGID_2_)" fill="none" stroke="#5A8191" stroke-width=".25" d="M259.67 223.533v21.002l-50.194 25.507v-21.007z"/><path clip-path="url(#SVGID_2_)" fill="#9D7F93" d="M213.214 273.003V252l21.687 11.02v21.004z"/><path clip-path="url(#SVGID_2_)" fill="none" stroke="#716A81" stroke-width=".25" d="M213.214 273.003V252l21.687 11.02v21.004z"/><path clip-path="url(#SVGID_2_)" fill="#CCB7C3" d="M285.092 237.517l-50.19 25.502L213.214 252l50.19-25.503z"/><path clip-path="url(#SVGID_2_)" fill="none" stroke="#716A81" stroke-width=".25" d="M285.092 237.517l-50.19 25.502L213.214 252l50.19-25.503z"/><path clip-path="url(#SVGID_2_)" fill="#B694A4" d="M285.092 237.517v21.005l-50.19 25.502V263.02z"/><path clip-path="url(#SVGID_2_)" fill="none" stroke="#716A81" stroke-width=".25" d="M285.092 237.517v21.005l-50.19 25.502V263.02z"/><path clip-path="url(#SVGID_2_)" fill="#92278F" d="M345.992 285.79L295.8 260.286l21.69-11.018 50.192 25.503z"/><path clip-path="url(#SVGID_2_)" fill="#74CCE5" d="M345.992 263.128l-50.193-25.5 21.69-11.018 50.192 25.5z"/><path clip-path="url(#SVGID_2_)" fill="#467082" d="M295.798 237.627v19.65l50.193 25.5v-19.65zM367.682 252.11l-21.69 11.018v19.65l21.69-11.02z"/><path clip-path="url(#SVGID_2_)" fill="#74CCE5" d="M398.284 290.43l-50.194-25.503 21.69-11.017 50.19 25.502z"/><path clip-path="url(#SVGID_2_)" fill="#467082" d="M348.09 264.927v19.65l50.193 25.5V290.43zM419.97 279.413l-21.686 11.018v19.647l21.686-11.015z"/><path clip-path="url(#SVGID_2_)" fill="#716A81" d="M240.428 286.84v-21.005l21.69 11.024v21z"/><path clip-path="url(#SVGID_2_)" fill="none" stroke="#716A81" stroke-width=".25" d="M240.428 286.84v-21.005l21.69 11.024v21z"/><path clip-path="url(#SVGID_2_)" fill="#C4A0A9" d="M312.31 251.356l-50.19 25.502-21.692-11.023 50.196-25.5z"/><path clip-path="url(#SVGID_2_)" fill="none" stroke="#716A81" stroke-width=".25" d="M312.31 251.356l-50.19 25.502-21.692-11.023 50.196-25.5z"/><path clip-path="url(#SVGID_2_)" fill="#87829B" d="M312.31 251.356v21.006l-50.19 25.497v-21.002z"/><path clip-path="url(#SVGID_2_)" fill="none" stroke="#716A81" stroke-width=".25" d="M312.31 251.356v21.006l-50.19 25.497v-21.002z"/><path clip-path="url(#SVGID_2_)" fill="#538BA1" d="M267.046 300.792v-21l21.687 11.02v21.002z"/><path clip-path="url(#SVGID_2_)" fill="none" stroke="#5A8191" stroke-width=".25" d="M267.046 300.792v-21l21.687 11.02v21.002z"/><path clip-path="url(#SVGID_2_)" fill="#B9E5FB" d="M338.93 265.306l-50.196 25.506-21.688-11.02 50.193-25.503z"/><path clip-path="url(#SVGID_2_)" fill="none" stroke="#5A8191" stroke-width=".25" d="M338.93 265.306l-50.196 25.506-21.688-11.02 50.193-25.503z"/><path clip-path="url(#SVGID_2_)" fill="#467082" d="M338.93 265.306v21.008l-50.196 25.5V290.81z"/><path clip-path="url(#SVGID_2_)" fill="none" stroke="#5A8191" stroke-width=".25" d="M338.93 265.306v21.008l-50.196 25.5V290.81z"/><path clip-path="url(#SVGID_2_)" fill="#716A81" d="M293.664 313.54v-21l21.69 11.02v21.002z"/><path clip-path="url(#SVGID_2_)" fill="none" stroke="#6B5E5A" stroke-width=".25" d="M293.664 313.54v-21l21.69 11.02v21.002z"/><path clip-path="url(#SVGID_2_)" fill="#C4A0A9" d="M365.545 278.06l-50.19 25.5-21.692-11.02 50.196-25.5z"/><path clip-path="url(#SVGID_2_)" fill="none" stroke="#6B5E5A" stroke-width=".25" d="M365.545 278.06l-50.19 25.5-21.692-11.02 50.196-25.5z"/><path clip-path="url(#SVGID_2_)" fill="#467082" d="M365.545 278.06v21.002l-50.19 25.5V303.56z"/><path clip-path="url(#SVGID_2_)" fill="none" stroke="#6B5E5A" stroke-width=".25" d="M365.545 278.06v21.002l-50.19 25.5V303.56z"/><path clip-path="url(#SVGID_2_)" fill="#87829B" d="M319.833 328.353v-21l21.69 11.02v21z"/><path clip-path="url(#SVGID_2_)" fill="none" stroke="#716A81" stroke-width=".25" d="M319.833 328.353v-21l21.69 11.02v21z"/><path clip-path="url(#SVGID_2_)" fill="#CCB7C3" d="M391.716 292.868l-50.19 25.503-21.693-11.018 50.197-25.503z"/><path clip-path="url(#SVGID_2_)" fill="none" stroke="#716A81" stroke-width=".25" d="M391.716 292.868l-50.19 25.503-21.693-11.018 50.197-25.503z"/><path clip-path="url(#SVGID_2_)" fill="#9D7F93" d="M391.716 292.868v21l-50.19 25.504v-21z"/><path clip-path="url(#SVGID_2_)" fill="none" stroke="#716A81" stroke-width=".25" d="M391.716 292.868v21l-50.19 25.504v-21z"/><path clip-path="url(#SVGID_2_)" fill="#A5CDD6" d="M453.73 317.842l-50.19-25.502 21.686-11.017 50.193 25.503z"/><path clip-path="url(#SVGID_2_)" fill="none" stroke="#5A8191" stroke-width=".25" d="M453.73 317.842l-50.19-25.502 21.686-11.017 50.193 25.503z"/><path clip-path="url(#SVGID_2_)" fill="#5A8191" d="M403.54 292.34v19.65l50.19 25.5v-19.648z"/><path clip-path="url(#SVGID_2_)" fill="none" stroke="#5A8191" stroke-width=".25" d="M403.54 292.34v19.65l50.19 25.5v-19.648z"/><path clip-path="url(#SVGID_2_)" fill="#66A6BA" d="M475.42 306.826l-21.69 11.017v19.648l21.69-11.015z"/><path clip-path="url(#SVGID_2_)" fill="none" stroke="#5A8191" stroke-width=".25" d="M475.42 306.826l-21.69 11.017v19.648l21.69-11.015z"/><path clip-path="url(#SVGID_2_)" fill="#5A8191" d="M348.09 341.104V320.1l21.69 11.02v21.006z"/><path clip-path="url(#SVGID_2_)" fill="none" stroke="#5A8191" stroke-width=".25" d="M348.09 341.104V320.1l21.69 11.02v21.006z"/><path clip-path="url(#SVGID_2_)" fill="#A5CDD6" d="M419.97 305.618l-50.19 25.5-21.69-11.02 50.194-25.5z"/><path clip-path="url(#SVGID_2_)" fill="none" stroke="#5A8191" stroke-width=".25" d="M419.97 305.618l-50.19 25.5-21.69-11.02 50.194-25.5z"/><path clip-path="url(#SVGID_2_)" fill="#467082" d="M419.97 305.618v21.003l-50.19 25.506v-21.008z"/><path clip-path="url(#SVGID_2_)" fill="#538BA1" d="M373.515 355.09v-21.004l21.687 11.017v21.007z"/><path clip-path="url(#SVGID_2_)" fill="none" stroke="#5A8191" stroke-width=".25" d="M373.515 355.09v-21.004l21.687 11.017v21.007z"/><path clip-path="url(#SVGID_2_)" fill="#D3E6F0" d="M445.396 319.603l-50.193 25.5-21.688-11.017 50.195-25.502z"/><path clip-path="url(#SVGID_2_)" fill="none" stroke="#5A8191" stroke-width=".25" d="M445.396 319.603l-50.193 25.5-21.688-11.017 50.195-25.502z"/><path clip-path="url(#SVGID_2_)" fill="#66A6BA" d="M445.396 319.603v21l-50.193 25.507v-21.007z"/><path clip-path="url(#SVGID_2_)" fill="none" stroke="#5A8191" stroke-width=".25" d="M445.396 319.603v21l-50.193 25.507v-21.007z"/><path clip-path="url(#SVGID_2_)" fill="#5A8191" d="M149.644 163.21v-21.005l21.692 11.02v21.005z"/><path clip-path="url(#SVGID_2_)" fill="none" stroke="#5A8191" stroke-width=".25" d="M149.644 163.21v-21.005l21.692 11.02v21.005z"/><path clip-path="url(#SVGID_2_)" fill="#A5CDD6" d="M221.526 127.725l-50.19 25.5-21.692-11.02 50.196-25.5z"/><path clip-path="url(#SVGID_2_)" fill="none" stroke="#5A8191" stroke-width=".25" d="M221.526 127.725l-50.19 25.5-21.692-11.02 50.196-25.5z"/><path clip-path="url(#SVGID_2_)" fill="#467082" d="M221.526 127.725v21l-50.19 25.505v-21.005z"/><path clip-path="url(#SVGID_2_)" fill="#538BA1" d="M175.07 177.193V156.19l21.687 11.02v21.004z"/><path clip-path="url(#SVGID_2_)" fill="none" stroke="#5A8191" stroke-width=".25" d="M175.07 177.193V156.19l21.687 11.02v21.004z"/><path clip-path="url(#SVGID_2_)" fill="#D3E6F0" d="M246.953 141.71l-50.195 25.5-21.688-11.02 50.196-25.502z"/><path clip-path="url(#SVGID_2_)" fill="none" stroke="#5A8191" stroke-width=".25" d="M246.953 141.71l-50.195 25.5-21.688-11.02 50.196-25.502z"/><path clip-path="url(#SVGID_2_)" fill="#66A6BA" d="M246.953 141.71v21l-50.195 25.504V167.21z"/><path clip-path="url(#SVGID_2_)" fill="none" stroke="#5A8191" stroke-width=".25" d="M246.953 141.71v21l-50.195 25.504V167.21z"/><path clip-path="url(#SVGID_2_)" fill="#5A8191" d="M202.622 191.24v-21.005l21.687 11.024v21z"/><path clip-path="url(#SVGID_2_)" fill="none" stroke="#5A8191" stroke-width=".25" d="M202.622 191.24v-21.005l21.687 11.024v21z"/><path clip-path="url(#SVGID_2_)" fill="#A5CDD6" d="M274.5 155.757l-50.19 25.502-21.688-11.025 50.19-25.498z"/><path clip-path="url(#SVGID_2_)" fill="none" stroke="#5A8191" stroke-width=".25" d="M274.5 155.757l-50.19 25.502-21.688-11.025 50.19-25.498z"/><path clip-path="url(#SVGID_2_)" fill="#467082" d="M274.5 155.757v21l-50.19 25.503v-21z"/><path clip-path="url(#SVGID_2_)" fill="#538BA1" d="M228.047 205.227v-21.005l21.684 11.02v21.003z"/><path clip-path="url(#SVGID_2_)" fill="none" stroke="#5A8191" stroke-width=".25" d="M228.047 205.227v-21.005l21.684 11.02v21.003z"/><path clip-path="url(#SVGID_2_)" fill="#ECC06B" d="M299.927 169.74l-50.195 25.503-21.685-11.02 50.19-25.502z"/><path clip-path="url(#SVGID_2_)" fill="none" stroke="#5A8191" stroke-width=".25" d="M299.927 169.74l-50.195 25.503-21.685-11.02 50.19-25.502z"/><path clip-path="url(#SVGID_2_)" fill="#E38A52" d="M299.927 169.74v21l-50.195 25.505v-21.002z"/><path clip-path="url(#SVGID_2_)" fill="none" stroke="#5A8191" stroke-width=".25" d="M299.927 169.74v21l-50.195 25.505v-21.002z"/><path clip-path="url(#SVGID_2_)" fill="#5A8191" d="M259.823 217.88v-21.002l21.687 11.02V228.9z"/><path clip-path="url(#SVGID_2_)" fill="none" stroke="#5A8191" stroke-width=".25" d="M259.823 217.88v-21.002l21.687 11.02V228.9z"/><path clip-path="url(#SVGID_2_)" fill="#A5CDD6" d="M331.706 182.397l-50.196 25.5-21.687-11.02 50.192-25.502z"/><path clip-path="url(#SVGID_2_)" fill="none" stroke="#5A8191" stroke-width=".25" d="M331.706 182.397l-50.196 25.5-21.687-11.02 50.192-25.502z"/><path clip-path="url(#SVGID_2_)" fill="#467082" d="M331.706 182.397v21l-50.196 25.504v-21.003z"/><path clip-path="url(#SVGID_2_)" fill="#538BA1" d="M285.25 231.867v-21.005l21.686 11.02v21.006z"/><path clip-path="url(#SVGID_2_)" fill="none" stroke="#5A8191" stroke-width=".25" d="M285.25 231.867v-21.005l21.686 11.02v21.006z"/><path clip-path="url(#SVGID_2_)" fill="#D3E6F0" d="M357.13 196.38l-50.194 25.503-21.687-11.02 50.19-25.503z"/><path clip-path="url(#SVGID_2_)" fill="none" stroke="#5A8191" stroke-width=".25" d="M357.13 196.38l-50.194 25.503-21.687-11.02 50.19-25.503z"/><path clip-path="url(#SVGID_2_)" fill="#66A6BA" d="M357.13 196.38v21l-50.194 25.507v-21.004z"/><path clip-path="url(#SVGID_2_)" fill="none" stroke="#5A8191" stroke-width=".25" d="M357.13 196.38v21l-50.194 25.507v-21.004z"/><path clip-path="url(#SVGID_2_)" fill="#C24649" d="M316.494 243.41v-21.006l21.69 11.02v21.006z"/><path clip-path="url(#SVGID_2_)" fill="none" stroke="#5A8191" stroke-width=".25" d="M316.494 243.41v-21.006l21.69 11.02v21.006z"/><path clip-path="url(#SVGID_2_)" fill="#F8A88A" d="M388.378 207.923l-50.194 25.502-21.69-11.02 50.194-25.5z"/><path clip-path="url(#SVGID_2_)" fill="none" stroke="#5A8191" stroke-width=".25" d="M388.378 207.923l-50.194 25.502-21.69-11.02 50.194-25.5z"/><path clip-path="url(#SVGID_2_)" fill="#D06064" d="M388.378 207.923v21.005l-50.194 25.5v-21.003z"/><path clip-path="url(#SVGID_2_)" fill="none" stroke="#5A8191" stroke-width=".25" d="M388.378 207.923v21.005l-50.194 25.5v-21.003z"/><path clip-path="url(#SVGID_2_)" fill="#A5CDD6" d="M170.678 177.96l-50.194-25.5 21.69-11.016 50.19 25.5z"/><path clip-path="url(#SVGID_2_)" fill="none" stroke="#5A8191" stroke-width=".25" d="M170.678 177.96l-50.194-25.5 21.69-11.016 50.19 25.5z"/><path clip-path="url(#SVGID_2_)" fill="#5A8191" d="M120.484 152.46v19.65l50.194 25.5v-19.65z"/><path clip-path="url(#SVGID_2_)" fill="none" stroke="#5A8191" stroke-width=".25" d="M120.484 152.46v19.65l50.194 25.5v-19.65z"/><path clip-path="url(#SVGID_2_)" fill="#66A6BA" d="M192.365 166.943L170.68 177.96v19.65l21.685-11.018z"/><path clip-path="url(#SVGID_2_)" fill="none" stroke="#5A8191" stroke-width=".25" d="M192.365 166.943L170.68 177.96v19.65l21.685-11.018z"/><path clip-path="url(#SVGID_2_)" fill="#87829B" d="M143.197 192l-50.195-25.5 21.69-11.02 50.192 25.503z"/><path clip-path="url(#SVGID_2_)" fill="none" stroke="#5A8191" stroke-width=".25" d="M143.197 192l-50.195-25.5 21.69-11.02 50.192 25.503z"/><path clip-path="url(#SVGID_2_)" fill="#695A73" d="M93 166.5v19.647l50.196 25.5v-19.646z"/><path clip-path="url(#SVGID_2_)" fill="none" stroke="#5A8191" stroke-width=".25" d="M93 166.5v19.647l50.196 25.5v-19.646z"/><path clip-path="url(#SVGID_2_)" fill="#716A81" d="M164.884 180.983L143.197 192v19.648l21.687-11.017z"/><path clip-path="url(#SVGID_2_)" fill="none" stroke="#5A8191" stroke-width=".25" d="M164.884 180.983L143.197 192v19.648l21.687-11.017z"/><path clip-path="url(#SVGID_2_)" fill="#A5CDD6" d="M226.622 205.995l-50.19-25.502 21.687-11.015 50.193 25.498z"/><path clip-path="url(#SVGID_2_)" fill="none" stroke="#5A8191" stroke-width=".25" d="M226.622 205.995l-50.19-25.502 21.687-11.015 50.193 25.498z"/><path clip-path="url(#SVGID_2_)" fill="#5A8191" d="M176.43 180.494v19.648l50.19 25.5v-19.646z"/><path clip-path="url(#SVGID_2_)" fill="none" stroke="#5A8191" stroke-width=".25" d="M176.43 180.494v19.648l50.19 25.5v-19.646z"/><path clip-path="url(#SVGID_2_)" fill="#66A6BA" d="M248.314 194.976l-21.692 11.02v19.646l21.692-11.017z"/><path clip-path="url(#SVGID_2_)" fill="none" stroke="#5A8191" stroke-width=".25" d="M248.314 194.976l-21.692 11.02v19.646l21.692-11.017z"/><path clip-path="url(#SVGID_2_)" fill="#A5CDD6" d="M199.146 220.03l-50.197-25.5 21.687-11.016 50.196 25.502z"/><path clip-path="url(#SVGID_2_)" fill="none" stroke="#5A8191" stroke-width=".25" d="M199.146 220.03l-50.197-25.5 21.687-11.016 50.196 25.502z"/><path clip-path="url(#SVGID_2_)" fill="#5A8191" d="M148.95 194.53v19.65l50.196 25.5v-19.648z"/><path clip-path="url(#SVGID_2_)" fill="none" stroke="#5A8191" stroke-width=".25" d="M148.95 194.53v19.65l50.196 25.5v-19.648z"/><path clip-path="url(#SVGID_2_)" fill="#66A6BA" d="M220.833 209.016l-21.687 11.016v19.65l21.687-11.017z"/><path clip-path="url(#SVGID_2_)" fill="none" stroke="#5A8191" stroke-width=".25" d="M220.833 209.016l-21.687 11.016v19.65l21.687-11.017z"/><path clip-path="url(#SVGID_2_)" fill="#A5CDD6" d="M281.412 234.913l-50.195-25.503 21.69-11.015 50.194 25.5z"/><path clip-path="url(#SVGID_2_)" fill="none" stroke="#5A8191" stroke-width=".25" d="M281.412 234.913l-50.195-25.503 21.69-11.015 50.194 25.5z"/><path clip-path="url(#SVGID_2_)" fill="#5A8191" d="M231.216 209.41v19.65l50.195 25.502v-19.648z"/><path clip-path="url(#SVGID_2_)" fill="none" stroke="#5A8191" stroke-width=".25" d="M231.216 209.41v19.65l50.195 25.502v-19.648z"/><path clip-path="url(#SVGID_2_)" fill="#66A6BA" d="M303.1 223.895l-21.688 11.02v19.647l21.69-11.018z"/><path clip-path="url(#SVGID_2_)" fill="none" stroke="#5A8191" stroke-width=".25" d="M303.1 223.895l-21.688 11.02v19.647l21.69-11.018z"/><path clip-path="url(#SVGID_2_)" fill="#E38A52" d="M253.93 248.95l-50.19-25.5 21.686-11.018 50.194 25.502z"/><path clip-path="url(#SVGID_2_)" fill="none" stroke="#5A8191" stroke-width=".25" d="M253.93 248.95l-50.19-25.5 21.686-11.018 50.194 25.502z"/><path clip-path="url(#SVGID_2_)" fill="#AE3739" d="M203.74 223.45v19.65l50.19 25.5v-19.65z"/><path clip-path="url(#SVGID_2_)" fill="none" stroke="#5A8191" stroke-width=".25" d="M203.74 223.45v19.65l50.19 25.5v-19.65z"/><path clip-path="url(#SVGID_2_)" fill="#D06064" d="M275.62 237.934l-21.688 11.016v19.65l21.69-11.018z"/><path clip-path="url(#SVGID_2_)" fill="none" stroke="#5A8191" stroke-width=".25" d="M275.62 237.934l-21.688 11.016v19.65l21.69-11.018z"/><path clip-path="url(#SVGID_2_)" fill="#5A8191" d="M349.627 257.535V236.53l21.692 11.02v21.006z"/><path clip-path="url(#SVGID_2_)" fill="none" stroke="#5A8191" stroke-width=".25" d="M349.627 257.535V236.53l21.692 11.02v21.006z"/><path clip-path="url(#SVGID_2_)" fill="#A5CDD6" d="M421.51 222.05l-50.19 25.5-21.693-11.02 50.193-25.498z"/><path clip-path="url(#SVGID_2_)" fill="none" stroke="#5A8191" stroke-width=".25" d="M421.51 222.05l-50.19 25.5-21.693-11.02 50.193-25.498z"/><path clip-path="url(#SVGID_2_)" fill="#467082" d="M421.51 222.05v21.002l-50.19 25.504V247.55z"/><path clip-path="url(#SVGID_2_)" fill="#538BA1" d="M375.054 271.52V250.52l21.687 11.02v21.004z"/><path clip-path="url(#SVGID_2_)" fill="none" stroke="#5A8191" stroke-width=".25" d="M375.054 271.52V250.52l21.687 11.02v21.004z"/><path clip-path="url(#SVGID_2_)" fill="#D3E6F0" d="M446.936 236.035l-50.194 25.504-21.688-11.02 50.19-25.505z"/><path clip-path="url(#SVGID_2_)" fill="none" stroke="#5A8191" stroke-width=".25" d="M446.936 236.035l-50.194 25.504-21.688-11.02 50.19-25.505z"/><path clip-path="url(#SVGID_2_)" fill="#66A6BA" d="M446.936 236.035v21l-50.194 25.507V261.54z"/><path clip-path="url(#SVGID_2_)" fill="none" stroke="#5A8191" stroke-width=".25" d="M446.936 236.035v21l-50.194 25.507V261.54z"/><path clip-path="url(#SVGID_2_)" fill="#5A8191" d="M405.078 287.61v-21.004l21.69 11.02v21.006z"/><path clip-path="url(#SVGID_2_)" fill="none" stroke="#5A8191" stroke-width=".25" d="M405.078 287.61v-21.004l21.69 11.02v21.006z"/><path clip-path="url(#SVGID_2_)" fill="#A5CDD6" d="M476.96 252.123l-50.192 25.503-21.69-11.02 50.194-25.503z"/><path clip-path="url(#SVGID_2_)" fill="none" stroke="#5A8191" stroke-width=".25" d="M476.96 252.123l-50.192 25.503-21.69-11.02 50.194-25.503z"/><path clip-path="url(#SVGID_2_)" fill="#467082" d="M476.96 252.123v21l-50.192 25.508v-21.004z"/><path clip-path="url(#SVGID_2_)" fill="#538BA1" d="M430.503 301.596V280.59l21.686 11.02v21.005z"/><path clip-path="url(#SVGID_2_)" fill="none" stroke="#5A8191" stroke-width=".25" d="M430.503 301.596V280.59l21.686 11.02v21.005z"/><path clip-path="url(#SVGID_2_)" fill="#D3E6F0" d="M502.384 266.108L452.19 291.61l-21.687-11.02 50.194-25.502z"/><path clip-path="url(#SVGID_2_)" fill="none" stroke="#5A8191" stroke-width=".25" d="M502.384 266.108L452.19 291.61l-21.687-11.02 50.194-25.502z"/><path clip-path="url(#SVGID_2_)" fill="#66A6BA" d="M502.384 266.108v21.002l-50.195 25.505V291.61z"/><path clip-path="url(#SVGID_2_)" fill="none" stroke="#5A8191" stroke-width=".25" d="M502.384 266.108v21.002l-50.195 25.505V291.61z"/><path clip-path="url(#SVGID_2_)" fill="#A5CDD6" d="M337.67 262.185l-50.193-25.5 21.69-11.018 50.19 25.504z"/><path clip-path="url(#SVGID_2_)" fill="none" stroke="#5A8191" stroke-width=".25" d="M337.67 262.185l-50.193-25.5 21.69-11.018 50.19 25.504z"/><path clip-path="url(#SVGID_2_)" fill="#5A8191" d="M287.476 236.685v19.647l50.195 25.502v-19.65z"/><path clip-path="url(#SVGID_2_)" fill="none" stroke="#5A8191" stroke-width=".25" d="M287.476 236.685v19.647l50.195 25.502v-19.65z"/><path clip-path="url(#SVGID_2_)" fill="#66A6BA" d="M359.357 251.17l-21.685 11.015v19.65l21.685-11.018z"/><path clip-path="url(#SVGID_2_)" fill="none" stroke="#5A8191" stroke-width=".25" d="M359.357 251.17l-21.685 11.015v19.65l21.685-11.018z"/><path clip-path="url(#SVGID_2_)" fill="#A5CDD6" d="M310.19 276.224l-50.192-25.5 21.687-11.018 50.194 25.5z"/><path clip-path="url(#SVGID_2_)" fill="none" stroke="#5A8191" stroke-width=".25" d="M310.19 276.224l-50.192-25.5 21.687-11.018 50.194 25.5z"/><path clip-path="url(#SVGID_2_)" fill="#5A8191" d="M259.998 250.723v19.647l50.19 25.503v-19.65z"/><path clip-path="url(#SVGID_2_)" fill="none" stroke="#5A8191" stroke-width=".25" d="M259.998 250.723v19.647l50.19 25.503v-19.65z"/><path clip-path="url(#SVGID_2_)" fill="#66A6BA" d="M331.88 265.206l-21.69 11.018v19.648l21.69-11.016z"/><path clip-path="url(#SVGID_2_)" fill="none" stroke="#5A8191" stroke-width=".25" d="M331.88 265.206l-21.69 11.018v19.648l21.69-11.016z"/><path clip-path="url(#SVGID_2_)" fill="#9D7F93" d="M394.167 290.423l-50.19-25.5 21.684-11.02 50.196 25.503z"/><path clip-path="url(#SVGID_2_)" fill="none" stroke="#5A8191" stroke-width=".25" d="M394.167 290.423l-50.19-25.5 21.684-11.02 50.196 25.503z"/><path clip-path="url(#SVGID_2_)" fill="#695A73" d="M343.975 264.922v19.648l50.192 25.502v-19.65z"/><path clip-path="url(#SVGID_2_)" fill="none" stroke="#5A8191" stroke-width=".25" d="M343.975 264.922v19.648l50.192 25.502v-19.65z"/><path clip-path="url(#SVGID_2_)" fill="#716A81" d="M415.856 279.406l-21.69 11.018v19.648l21.69-11.017z"/><path clip-path="url(#SVGID_2_)" fill="none" stroke="#5A8191" stroke-width=".25" d="M415.856 279.406l-21.69 11.018v19.648l21.69-11.017z"/><path clip-path="url(#SVGID_2_)" fill="#A5CDD6" d="M366.688 304.462l-50.194-25.503 21.69-11.017 50.194 25.502z"/><path clip-path="url(#SVGID_2_)" fill="none" stroke="#5A8191" stroke-width=".25" d="M366.688 304.462l-50.194-25.503 21.69-11.017 50.194 25.502z"/><path clip-path="url(#SVGID_2_)" fill="#5A8191" d="M316.494 278.96v19.648l50.194 25.503v-19.648z"/><path clip-path="url(#SVGID_2_)" fill="none" stroke="#5A8191" stroke-width=".25" d="M316.494 278.96v19.648l50.194 25.503v-19.648z"/><path clip-path="url(#SVGID_2_)" fill="#66A6BA" d="M388.378 293.445l-21.69 11.018v19.648l21.69-11.016z"/><path clip-path="url(#SVGID_2_)" fill="none" stroke="#5A8191" stroke-width=".25" d="M388.378 293.445l-21.69 11.018v19.648l21.69-11.016z"/><path clip-path="url(#SVGID_2_)" fill="#538BA1" d="M372.083 328.025V307.02l21.69 11.023v21.004z"/><path clip-path="url(#SVGID_2_)" fill="none" stroke="#5A8191" stroke-width=".25" d="M372.083 328.025V307.02l21.69 11.023v21.004z"/><path clip-path="url(#SVGID_2_)" fill="#D3E6F0" d="M443.966 292.54l-50.193 25.502-21.69-11.02 50.193-25.502z"/><path clip-path="url(#SVGID_2_)" fill="none" stroke="#5A8191" stroke-width=".25" d="M443.966 292.54l-50.193 25.502-21.69-11.02 50.193-25.502z"/><path clip-path="url(#SVGID_2_)" fill="#66A6BA" d="M443.966 292.54v21l-50.193 25.506v-21.004z"/><path clip-path="url(#SVGID_2_)" fill="none" stroke="#5A8191" stroke-width=".25" d="M443.966 292.54v21l-50.193 25.506v-21.004z"/><path clip-path="url(#SVGID_2_)" fill="#467082" d="M497.64 291.338l-21.69 11.016v19.65l21.69-11.02z"/><path clip-path="url(#SVGID_2_)" fill="#A5CDD6" d="M531.397 329.767l-50.192-25.5 21.685-11.018 50.194 25.5z"/><path clip-path="url(#SVGID_2_)" fill="none" stroke="#5A8191" stroke-width=".25" d="M531.397 329.767l-50.192-25.5 21.685-11.018 50.194 25.5z"/><path clip-path="url(#SVGID_2_)" fill="#5A8191" d="M481.205 304.266v19.65l50.192 25.5v-19.65z"/><path clip-path="url(#SVGID_2_)" fill="none" stroke="#5A8191" stroke-width=".25" d="M481.205 304.266v19.65l50.192 25.5v-19.65z"/><path clip-path="url(#SVGID_2_)" fill="#66A6BA" d="M553.083 318.75l-21.686 11.018v19.648l21.686-11.018z"/><path clip-path="url(#SVGID_2_)" fill="none" stroke="#5A8191" stroke-width=".25" d="M553.083 318.75l-21.686 11.018v19.648l21.686-11.018z"/><path clip-path="url(#SVGID_2_)" fill="#74CCE5" d="M585.475 358.256L535.28 332.75l21.69-11.016 50.195 25.502z"/><path clip-path="url(#SVGID_2_)" fill="#467082" d="M535.28 332.75v19.65l50.195 25.503v-19.647zM607.166 347.236l-21.69 11.02v19.647l21.69-11.02z"/><path clip-path="url(#SVGID_2_)" fill="#74CCE5" d="M637.764 385.553l-50.192-25.503 21.692-11.017 50.188 25.503z"/><path clip-path="url(#SVGID_2_)" fill="#467082" d="M587.572 360.05v19.65l50.192 25.5v-19.647zM659.452 374.536l-21.688 11.018V405.2l21.688-11.014z"/><path clip-path="url(#SVGID_2_)" fill="#A5CDD6" d="M693.212 412.966l-50.192-25.503 21.686-11.017L714.9 401.95z"/><path clip-path="url(#SVGID_2_)" fill="none" stroke="#5A8191" stroke-width=".25" d="M693.212 412.966l-50.192-25.503 21.686-11.017L714.9 401.95z"/><path clip-path="url(#SVGID_2_)" fill="#5A8191" d="M643.02 387.463v19.65l50.192 25.5v-19.647z"/><path clip-path="url(#SVGID_2_)" fill="none" stroke="#5A8191" stroke-width=".25" d="M643.02 387.463v19.65l50.192 25.5v-19.647z"/><path clip-path="url(#SVGID_2_)" fill="#66A6BA" d="M714.9 401.95l-21.687 11.017v19.645l21.688-11.014z"/><path clip-path="url(#SVGID_2_)" fill="none" stroke="#5A8191" stroke-width=".25" d="M714.9 401.95l-21.687 11.017v19.645l21.688-11.014z"/><path clip-path="url(#SVGID_2_)" fill="#467082" d="M470.426 304.23l-21.69 11.016v19.65l21.69-11.018z"/><path clip-path="url(#SVGID_2_)" fill="#A5CDD6" d="M504.18 342.658l-50.196-25.5 21.69-11.016 50.196 25.5z"/><path clip-path="url(#SVGID_2_)" fill="none" stroke="#5A8191" stroke-width=".25" d="M504.18 342.658l-50.196-25.5 21.69-11.016 50.196 25.5z"/><path clip-path="url(#SVGID_2_)" fill="#5A8191" d="M453.984 317.158v19.65l50.195 25.5v-19.65z"/><path clip-path="url(#SVGID_2_)" fill="none" stroke="#5A8191" stroke-width=".25" d="M453.984 317.158v19.65l50.195 25.5v-19.65z"/><path clip-path="url(#SVGID_2_)" fill="#66A6BA" d="M525.87 331.642l-21.69 11.017v19.648l21.69-11.017z"/><path clip-path="url(#SVGID_2_)" fill="none" stroke="#5A8191" stroke-width=".25" d="M525.87 331.642l-21.69 11.017v19.648l21.69-11.017z"/><path clip-path="url(#SVGID_2_)" fill="#659AD2" d="M399.79 368.182V347.18l21.686 11.016v21.007z"/><path clip-path="url(#SVGID_2_)" fill="none" stroke="#5A8191" stroke-width=".25" d="M399.79 368.182V347.18l21.686 11.016v21.007z"/><path clip-path="url(#SVGID_2_)" fill="#B9E5FB" d="M471.672 332.697l-50.196 25.498-21.687-11.015 50.194-25.503z"/><path clip-path="url(#SVGID_2_)" fill="none" stroke="#5A8191" stroke-width=".25" d="M471.672 332.697l-50.196 25.498-21.687-11.015 50.194-25.503z"/><path clip-path="url(#SVGID_2_)" fill="#467082" d="M471.672 332.697v21l-50.196 25.505v-21.007z"/><path clip-path="url(#SVGID_2_)" fill="none" stroke="#5A8191" stroke-width=".25" d="M471.672 332.697v21l-50.196 25.505v-21.007z"/><path clip-path="url(#SVGID_2_)" fill="#9D7F93" d="M425.213 382.166v-21.004l21.686 11.02v21.005z"/><path clip-path="url(#SVGID_2_)" fill="none" stroke="#716A81" stroke-width=".25" d="M425.213 382.166v-21.004l21.686 11.02v21.005z"/><path clip-path="url(#SVGID_2_)" fill="#CCB7C3" d="M497.096 346.68l-50.196 25.5-21.687-11.018 50.193-25.5z"/><path clip-path="url(#SVGID_2_)" fill="none" stroke="#716A81" stroke-width=".25" d="M497.096 346.68l-50.196 25.5-21.687-11.018 50.193-25.5z"/><path clip-path="url(#SVGID_2_)" fill="#B694A4" d="M497.096 346.68v21.002L446.9 393.186V372.18z"/><path clip-path="url(#SVGID_2_)" fill="none" stroke="#716A81" stroke-width=".25" d="M497.096 346.68v21.002L446.9 393.186V372.18z"/><path clip-path="url(#SVGID_2_)" fill="#92278F" d="M557.993 394.954L507.8 369.448l21.69-11.018 50.194 25.502z"/><path clip-path="url(#SVGID_2_)" fill="#74CCE5" d="M557.993 372.293L507.8 346.79l21.69-11.018 50.194 25.5z"/><path clip-path="url(#SVGID_2_)" fill="#467082" d="M507.8 346.79v19.648l50.193 25.503v-19.647z"/><path clip-path="url(#SVGID_2_)" fill="#467082" d="M579.683 361.273l-21.69 11.02v19.648l21.69-11.016z"/><path clip-path="url(#SVGID_2_)" fill="#74CCE5" d="M610.285 399.59l-50.194-25.498 21.69-11.017 50.194 25.498z"/><path clip-path="url(#SVGID_2_)" fill="#467082" d="M560.09 374.092v19.647l50.194 25.5v-19.65zM631.975 388.573l-21.69 11.018v19.65l21.69-11.014z"/><path clip-path="url(#SVGID_2_)" fill="#716A81" d="M452.43 396.004V375l21.688 11.023v21z"/><path clip-path="url(#SVGID_2_)" fill="none" stroke="#716A81" stroke-width=".25" d="M452.43 396.004V375l21.688 11.023v21z"/><path clip-path="url(#SVGID_2_)" fill="#C4A0A9" d="M524.31 360.52l-50.19 25.502L452.43 375l50.194-25.497z"/><path clip-path="url(#SVGID_2_)" fill="none" stroke="#716A81" stroke-width=".25" d="M524.31 360.52l-50.19 25.502L452.43 375l50.194-25.497z"/><path clip-path="url(#SVGID_2_)" fill="#87829B" d="M524.31 360.52v21.002l-50.19 25.5v-21z"/><path clip-path="url(#SVGID_2_)" fill="none" stroke="#716A81" stroke-width=".25" d="M524.31 360.52v21.002l-50.19 25.5v-21z"/><path clip-path="url(#SVGID_2_)" fill="#538BA1" d="M479.048 409.956v-21l21.69 11.018v21.003z"/><path clip-path="url(#SVGID_2_)" fill="none" stroke="#5A8191" stroke-width=".25" d="M479.048 409.956v-21l21.69 11.018v21.003z"/><path clip-path="url(#SVGID_2_)" fill="#B9E5FB" d="M550.93 374.47l-50.192 25.503-21.69-11.018 50.192-25.503z"/><path clip-path="url(#SVGID_2_)" fill="none" stroke="#5A8191" stroke-width=".25" d="M550.93 374.47l-50.192 25.503-21.69-11.018 50.192-25.503z"/><path clip-path="url(#SVGID_2_)" fill="#467082" d="M550.93 374.47v21.006l-50.192 25.5v-21.003z"/><path clip-path="url(#SVGID_2_)" fill="none" stroke="#5A8191" stroke-width=".25" d="M550.93 374.47v21.006l-50.192 25.5v-21.003z"/><path clip-path="url(#SVGID_2_)" fill="#716A81" d="M505.663 422.706v-21l21.69 11.018v21z"/><path clip-path="url(#SVGID_2_)" fill="none" stroke="#6B5E5A" stroke-width=".25" d="M505.663 422.706v-21l21.69 11.018v21z"/><path clip-path="url(#SVGID_2_)" fill="#C4A0A9" d="M577.547 387.22l-50.193 25.503-21.69-11.018 50.195-25.504z"/><path clip-path="url(#SVGID_2_)" fill="none" stroke="#6B5E5A" stroke-width=".25" d="M577.547 387.22l-50.193 25.503-21.69-11.018 50.195-25.504z"/><path clip-path="url(#SVGID_2_)" fill="#467082" d="M577.547 387.22v21.006l-50.193 25.498v-21z"/><path clip-path="url(#SVGID_2_)" fill="none" stroke="#6B5E5A" stroke-width=".25" d="M577.547 387.22v21.006l-50.193 25.498v-21z"/><path clip-path="url(#SVGID_2_)" fill="#87829B" d="M531.84 437.516v-21l21.685 11.02v21z"/><path clip-path="url(#SVGID_2_)" fill="none" stroke="#716A81" stroke-width=".25" d="M531.84 437.516v-21l21.685 11.02v21z"/><path clip-path="url(#SVGID_2_)" fill="#CCB7C3" d="M603.723 402.032l-50.198 25.502-21.686-11.02 50.19-25.5z"/><path clip-path="url(#SVGID_2_)" fill="none" stroke="#716A81" stroke-width=".25" d="M603.723 402.032l-50.198 25.502-21.686-11.02 50.19-25.5z"/><path clip-path="url(#SVGID_2_)" fill="#9D7F93" d="M603.723 402.032v21l-50.198 25.503v-21z"/><path clip-path="url(#SVGID_2_)" fill="none" stroke="#716A81" stroke-width=".25" d="M603.723 402.032v21l-50.198 25.503v-21z"/><path clip-path="url(#SVGID_2_)" fill="#A5CDD6" d="M665.734 427.004l-50.196-25.502 21.688-11.014 50.193 25.498z"/><path clip-path="url(#SVGID_2_)" fill="none" stroke="#5A8191" stroke-width=".25" d="M665.734 427.004l-50.196-25.502 21.688-11.014 50.193 25.498z"/><path clip-path="url(#SVGID_2_)" fill="#5A8191" d="M615.537 401.502v19.65l50.196 25.5v-19.648z"/><path clip-path="url(#SVGID_2_)" fill="none" stroke="#5A8191" stroke-width=".25" d="M615.537 401.502v19.65l50.196 25.5v-19.648z"/><path clip-path="url(#SVGID_2_)" fill="#66A6BA" d="M687.42 415.986l-21.686 11.02v19.646l21.685-11.014z"/><path clip-path="url(#SVGID_2_)" fill="none" stroke="#5A8191" stroke-width=".25" d="M687.42 415.986l-21.686 11.02v19.646l21.685-11.014z"/><path clip-path="url(#SVGID_2_)" fill="#5A8191" d="M560.09 450.266v-21.002l21.69 11.02v21.004z"/><path clip-path="url(#SVGID_2_)" fill="none" stroke="#5A8191" stroke-width=".25" d="M560.09 450.266v-21.002l21.69 11.02v21.004z"/><path clip-path="url(#SVGID_2_)" fill="#A5CDD6" d="M631.975 414.78l-50.194 25.502-21.69-11.018 50.195-25.502z"/><path clip-path="url(#SVGID_2_)" fill="none" stroke="#5A8191" stroke-width=".25" d="M631.975 414.78l-50.194 25.502-21.69-11.018 50.195-25.502z"/><path clip-path="url(#SVGID_2_)" fill="#467082" d="M631.975 414.78v21L581.78 461.29v-21.006z"/><path clip-path="url(#SVGID_2_)" fill="#538BA1" d="M585.517 464.253V443.25l21.69 11.02v21.003z"/><path clip-path="url(#SVGID_2_)" fill="none" stroke="#5A8191" stroke-width=".25" d="M585.517 464.253V443.25l21.69 11.02v21.003z"/><path clip-path="url(#SVGID_2_)" fill="#D3E6F0" d="M657.396 428.765l-50.19 25.504-21.69-11.02 50.194-25.503z"/><path clip-path="url(#SVGID_2_)" fill="none" stroke="#5A8191" stroke-width=".25" d="M657.396 428.765l-50.19 25.504-21.69-11.02 50.194-25.503z"/><path clip-path="url(#SVGID_2_)" fill="#66A6BA" d="M657.396 428.765v21.002l-50.19 25.505V454.27z"/><path clip-path="url(#SVGID_2_)" fill="none" stroke="#5A8191" stroke-width=".25" d="M657.396 428.765v21.002l-50.19 25.505V454.27z"/><path clip-path="url(#SVGID_2_)" fill="#5A8191" d="M471.823 327.045V306.04l21.692 11.02v21.008z"/><path clip-path="url(#SVGID_2_)" fill="none" stroke="#5A8191" stroke-width=".25" d="M471.823 327.045V306.04l21.692 11.02v21.008z"/><path clip-path="url(#SVGID_2_)" fill="#A5CDD6" d="M543.706 291.56l-50.19 25.5-21.693-11.02 50.197-25.5z"/><path clip-path="url(#SVGID_2_)" fill="none" stroke="#5A8191" stroke-width=".25" d="M543.706 291.56l-50.19 25.5-21.693-11.02 50.197-25.5z"/><path clip-path="url(#SVGID_2_)" fill="#467082" d="M543.706 291.56v21.002l-50.19 25.505V317.06z"/><path clip-path="url(#SVGID_2_)" fill="#538BA1" d="M497.25 341.03v-21.006l21.687 11.02v21.007z"/><path clip-path="url(#SVGID_2_)" fill="none" stroke="#5A8191" stroke-width=".25" d="M497.25 341.03v-21.006l21.687 11.02v21.007z"/><path clip-path="url(#SVGID_2_)" fill="#D3E6F0" d="M569.133 305.544l-50.196 25.5-21.688-11.02 50.195-25.5z"/><path clip-path="url(#SVGID_2_)" fill="none" stroke="#5A8191" stroke-width=".25" d="M569.133 305.544l-50.196 25.5-21.688-11.02 50.195-25.5z"/><path clip-path="url(#SVGID_2_)" fill="#66A6BA" d="M569.133 305.544v21.002l-50.196 25.504v-21.006z"/><path clip-path="url(#SVGID_2_)" fill="none" stroke="#5A8191" stroke-width=".25" d="M569.133 305.544v21.002l-50.196 25.504v-21.006z"/><path clip-path="url(#SVGID_2_)" fill="#538BA1" d="M528.498 352.573v-21.005l21.687 11.022v21.004z"/><path clip-path="url(#SVGID_2_)" fill="none" stroke="#5A8191" stroke-width=".25" d="M528.498 352.573v-21.005l21.687 11.022v21.004z"/><path clip-path="url(#SVGID_2_)" fill="#D3E6F0" d="M600.38 317.088l-50.194 25.5-21.69-11.02 50.193-25.5z"/><path clip-path="url(#SVGID_2_)" fill="none" stroke="#5A8191" stroke-width=".25" d="M600.38 317.088l-50.194 25.5-21.69-11.02 50.193-25.5z"/><path clip-path="url(#SVGID_2_)" fill="#66A6BA" d="M600.38 317.088v21l-50.194 25.505V342.59z"/><path clip-path="url(#SVGID_2_)" fill="none" stroke="#5A8191" stroke-width=".25" d="M600.38 317.088v21l-50.194 25.505V342.59z"/><path clip-path="url(#SVGID_2_)" fill="#A5CDD6" d="M493.41 344.075l-50.19-25.503 21.687-11.013 50.196 25.5z"/><path clip-path="url(#SVGID_2_)" fill="none" stroke="#5A8191" stroke-width=".25" d="M493.41 344.075l-50.19-25.503 21.687-11.013 50.196 25.5z"/><path clip-path="url(#SVGID_2_)" fill="#5A8191" d="M443.22 318.572v19.65l50.19 25.5v-19.647z"/><path clip-path="url(#SVGID_2_)" fill="none" stroke="#5A8191" stroke-width=".25" d="M443.22 318.572v19.65l50.19 25.5v-19.647z"/><path clip-path="url(#SVGID_2_)" fill="#66A6BA" d="M515.104 333.06l-21.692 11.016v19.646l21.692-11.016z"/><path clip-path="url(#SVGID_2_)" fill="none" stroke="#5A8191" stroke-width=".25" d="M515.104 333.06l-21.692 11.016v19.646l21.692-11.016z"/><path clip-path="url(#SVGID_2_)" fill="#A5CDD6" d="M465.933 358.112L415.74 332.61l21.685-11.015 50.195 25.5z"/><path clip-path="url(#SVGID_2_)" fill="none" stroke="#5A8191" stroke-width=".25" d="M465.933 358.112L415.74 332.61l21.685-11.015 50.195 25.5z"/><path clip-path="url(#SVGID_2_)" fill="#5A8191" d="M415.74 332.61v19.65l50.193 25.502v-19.65z"/><path clip-path="url(#SVGID_2_)" fill="none" stroke="#5A8191" stroke-width=".25" d="M415.74 332.61v19.65l50.193 25.502v-19.65z"/><path clip-path="url(#SVGID_2_)" fill="#66A6BA" d="M487.62 347.096l-21.686 11.017v19.65l21.686-11.018z"/><path clip-path="url(#SVGID_2_)" fill="none" stroke="#5A8191" stroke-width=".25" d="M487.62 347.096l-21.686 11.017v19.65l21.686-11.018z"/><path clip-path="url(#SVGID_2_)" fill="#695A73" d="M561.63 366.698v-21.004l21.69 11.023v21.005z"/><path clip-path="url(#SVGID_2_)" fill="none" stroke="#5A8191" stroke-width=".25" d="M561.63 366.698v-21.004l21.69 11.023v21.005z"/><path clip-path="url(#SVGID_2_)" fill="#9D7F93" d="M633.512 331.216l-50.192 25.5-21.692-11.02 50.194-25.502z"/><path clip-path="url(#SVGID_2_)" fill="none" stroke="#5A8191" stroke-width=".25" d="M633.512 331.216l-50.192 25.5-21.692-11.02 50.194-25.502z"/><path clip-path="url(#SVGID_2_)" fill="#87829B" d="M633.512 331.216v21l-50.192 25.505v-21.004z"/><path clip-path="url(#SVGID_2_)" fill="#538BA1" d="M587.054 380.686V359.68l21.687 11.022v21z"/><path clip-path="url(#SVGID_2_)" fill="none" stroke="#5A8191" stroke-width=".25" d="M587.054 380.686V359.68l21.687 11.022v21z"/><path clip-path="url(#SVGID_2_)" fill="#D3E6F0" d="M658.936 345.198L608.742 370.7l-21.688-11.018 50.192-25.502z"/><path clip-path="url(#SVGID_2_)" fill="none" stroke="#5A8191" stroke-width=".25" d="M658.936 345.198L608.742 370.7l-21.688-11.018 50.192-25.502z"/><path clip-path="url(#SVGID_2_)" fill="#66A6BA" d="M658.936 345.198V366.2l-50.194 25.502v-21z"/><path clip-path="url(#SVGID_2_)" fill="none" stroke="#5A8191" stroke-width=".25" d="M658.936 345.198V366.2l-50.194 25.502v-21z"/><path clip-path="url(#SVGID_2_)" fill="#5A8191" d="M617.077 396.772v-21.004l21.69 11.02v21.005z"/><path clip-path="url(#SVGID_2_)" fill="none" stroke="#5A8191" stroke-width=".25" d="M617.077 396.772v-21.004l21.69 11.02v21.005z"/><path clip-path="url(#SVGID_2_)" fill="#A5CDD6" d="M688.96 361.285l-50.192 25.503-21.69-11.02 50.194-25.502z"/><path clip-path="url(#SVGID_2_)" fill="none" stroke="#5A8191" stroke-width=".25" d="M688.96 361.285l-50.192 25.503-21.69-11.02 50.194-25.502z"/><path clip-path="url(#SVGID_2_)" fill="#467082" d="M688.96 361.285v21.004l-50.192 25.502v-21.004z"/><path clip-path="url(#SVGID_2_)" fill="#538BA1" d="M642.504 410.757v-21.004l21.686 11.02v21.004z"/><path clip-path="url(#SVGID_2_)" fill="none" stroke="#5A8191" stroke-width=".25" d="M642.504 410.757v-21.004l21.686 11.02v21.004z"/><path clip-path="url(#SVGID_2_)" fill="#D3E6F0" d="M714.387 375.272l-50.196 25.5-21.687-11.02 50.196-25.5z"/><path clip-path="url(#SVGID_2_)" fill="none" stroke="#5A8191" stroke-width=".25" d="M714.387 375.272l-50.196 25.5-21.687-11.02 50.196-25.5z"/><path clip-path="url(#SVGID_2_)" fill="#66A6BA" d="M714.387 375.272v21l-50.196 25.504v-21.003z"/><path clip-path="url(#SVGID_2_)" fill="none" stroke="#5A8191" stroke-width=".25" d="M714.387 375.272v21l-50.196 25.504v-21.003z"/><path clip-path="url(#SVGID_2_)" fill="#A5CDD6" d="M549.67 371.347l-50.19-25.5 21.685-11.016 50.197 25.5z"/><path clip-path="url(#SVGID_2_)" fill="none" stroke="#5A8191" stroke-width=".25" d="M549.67 371.347l-50.19-25.5 21.685-11.016 50.197 25.5z"/><path clip-path="url(#SVGID_2_)" fill="#5A8191" d="M499.48 345.847v19.648l50.19 25.503v-19.65z"/><path clip-path="url(#SVGID_2_)" fill="none" stroke="#5A8191" stroke-width=".25" d="M499.48 345.847v19.648l50.19 25.503v-19.65z"/><path clip-path="url(#SVGID_2_)" fill="#66A6BA" d="M571.362 360.33l-21.69 11.018v19.65l21.69-11.02z"/><path clip-path="url(#SVGID_2_)" fill="none" stroke="#5A8191" stroke-width=".25" d="M571.362 360.33l-21.69 11.018v19.65l21.69-11.02z"/><path clip-path="url(#SVGID_2_)" fill="#F8A88A" d="M522.19 385.388l-50.192-25.502 21.688-11.017 50.194 25.5z"/><path clip-path="url(#SVGID_2_)" fill="none" stroke="#5A8191" stroke-width=".25" d="M522.19 385.388l-50.192-25.502 21.688-11.017 50.194 25.5z"/><path clip-path="url(#SVGID_2_)" fill="#B56036" d="M471.998 359.886v19.646l50.19 25.503v-19.647z"/><path clip-path="url(#SVGID_2_)" fill="none" stroke="#5A8191" stroke-width=".25" d="M471.998 359.886v19.646l50.19 25.503v-19.647z"/><path clip-path="url(#SVGID_2_)" fill="#D06064" d="M543.88 374.37l-21.69 11.02v19.645l21.69-11.016z"/><path clip-path="url(#SVGID_2_)" fill="none" stroke="#5A8191" stroke-width=".25" d="M543.88 374.37l-21.69 11.02v19.645l21.69-11.016z"/><path clip-path="url(#SVGID_2_)" fill="#A5CDD6" d="M606.17 399.586l-50.193-25.503 21.688-11.015 50.19 25.5z"/><path clip-path="url(#SVGID_2_)" fill="none" stroke="#5A8191" stroke-width=".25" d="M606.17 399.586l-50.193-25.503 21.688-11.015 50.19 25.5z"/><path clip-path="url(#SVGID_2_)" fill="#5A8191" d="M555.977 374.083v19.65l50.192 25.5v-19.647z"/><path clip-path="url(#SVGID_2_)" fill="none" stroke="#5A8191" stroke-width=".25" d="M555.977 374.083v19.65l50.192 25.5v-19.647z"/><path clip-path="url(#SVGID_2_)" fill="#66A6BA" d="M627.856 388.57l-21.686 11.017v19.647l21.686-11.015z"/><path clip-path="url(#SVGID_2_)" fill="none" stroke="#5A8191" stroke-width=".25" d="M627.856 388.57l-21.686 11.017v19.647l21.686-11.015z"/><path clip-path="url(#SVGID_2_)" fill="#A5CDD6" d="M578.69 413.625l-50.192-25.503 21.687-11.017 50.193 25.503z"/><path clip-path="url(#SVGID_2_)" fill="none" stroke="#5A8191" stroke-width=".25" d="M578.69 413.625l-50.192-25.503 21.687-11.017 50.193 25.503z"/><path clip-path="url(#SVGID_2_)" fill="#5A8191" d="M528.498 388.122v19.65l50.19 25.502v-19.65z"/><path clip-path="url(#SVGID_2_)" fill="none" stroke="#5A8191" stroke-width=".25" d="M528.498 388.122v19.65l50.19 25.502v-19.65z"/><path clip-path="url(#SVGID_2_)" fill="#66A6BA" d="M600.38 402.608l-21.69 11.018v19.648l21.69-11.02z"/><path clip-path="url(#SVGID_2_)" fill="none" stroke="#5A8191" stroke-width=".25" d="M600.38 402.608l-21.69 11.018v19.648l21.69-11.02z"/><path clip-path="url(#SVGID_2_)" fill="#538BA1" d="M584.083 437.19v-21.004l21.69 11.02v21.004z"/><path clip-path="url(#SVGID_2_)" fill="none" stroke="#5A8191" stroke-width=".25" d="M584.083 437.19v-21.004l21.69 11.02v21.004z"/><path clip-path="url(#SVGID_2_)" fill="#D3E6F0" d="M655.97 401.705l-50.197 25.5-21.69-11.02 50.195-25.5z"/><path clip-path="url(#SVGID_2_)" fill="none" stroke="#5A8191" stroke-width=".25" d="M655.97 401.705l-50.197 25.5-21.69-11.02 50.195-25.5z"/><path clip-path="url(#SVGID_2_)" fill="#66A6BA" d="M655.97 401.705v21l-50.197 25.505v-21.005z"/><path clip-path="url(#SVGID_2_)" fill="none" stroke="#5A8191" stroke-width=".25" d="M655.97 401.705v21l-50.197 25.505v-21.005z"/><path clip-path="url(#SVGID_2_)" fill="#66A6BA" d="M667.144 460.24V443.22c0-3.003-2.245-5.335-3.565-4.603l-38.703 22.082 1.02 1.502-1.83 1.04 4.5 19.008 38.406-21.91s.17.01.17-.097"/><path clip-path="url(#SVGID_2_)" fill="none" stroke="#6B5E5A" stroke-width=".25" d="M667.144 460.24V443.22c0-3.003-2.245-5.335-3.565-4.603l-38.703 22.082 1.02 1.502-1.83 1.04 4.5 19.008 38.406-21.91s.17.01.17-.097z"/><path clip-path="url(#SVGID_2_)" fill="#66A6BA" d="M716.24 408.58l-.007-.008-34.75 19.83.662 1.136 2.946 20.433v.036l34.673-19.777v-17.191c0-2.99-2.203-5.164-3.522-4.46"/><path clip-path="url(#SVGID_2_)" fill="none" stroke="#6B5E5A" stroke-width=".25" d="M716.24 408.58l-.007-.008-34.75 19.83.662 1.136 2.946 20.433v.036l34.673-19.777v-17.191c0-2.99-2.203-5.164-3.522-4.46z"/><path clip-path="url(#SVGID_2_)" fill="#487388" d="M685.09 449.97v-17.188c0-4.272-4.495-6.897-4.495-1.818v17.106l4.496 1.9z"/><path clip-path="url(#SVGID_2_)" fill="none" stroke="#6B5E5A" stroke-width=".25" d="M685.09 449.97v-17.188c0-4.272-4.495-6.897-4.495-1.818v17.106l4.496 1.9z"/><path clip-path="url(#SVGID_2_)" fill="#487388" d="M628.564 482.248V465.06c0-4.273-4.498-6.897-4.498-1.818v17.107l4.498 1.898z"/><path clip-path="url(#SVGID_2_)" fill="none" stroke="#6B5E5A" stroke-width=".25" d="M628.564 482.248V465.06c0-4.273-4.498-6.897-4.498-1.818v17.107l4.498 1.898z"/><path clip-path="url(#SVGID_2_)" fill="#D1D3D4" d="M697.098 393.928h-4.425l-2.728 69.456c0 .977 2.212 1.77 4.938 1.77 2.73 0 4.938-.793 4.938-1.77l-2.722-69.456z"/><path clip-path="url(#SVGID_2_)" fill="none" stroke="#6B5E5A" stroke-width=".25" d="M697.098 393.928h-4.425l-2.728 69.456c0 .977 2.212 1.77 4.938 1.77 2.73 0 4.938-.793 4.938-1.77l-2.722-69.456z"/><path clip-path="url(#SVGID_2_)" fill="#D1D3D4" d="M694.885 304.718l-3.716 88.714c0 .823 1.66 1.49 3.715 1.49 2.053 0 3.717-.667 3.717-1.49l-3.717-88.714z"/><path clip-path="url(#SVGID_2_)" fill="none" stroke="#6B5E5A" stroke-width=".25" d="M694.885 304.718l-3.716 88.714c0 .823 1.66 1.49 3.715 1.49 2.053 0 3.717-.667 3.717-1.49l-3.717-88.714z"/></svg>